ISO-10303-21;
HEADER;
/* Generated by software containing ST-Developer
 * from STEP Tools, Inc. (www.steptools.com) 
 */

FILE_DESCRIPTION(
/* description */ (''),
/* implementation_level */ '2;1');

FILE_NAME(
/* name */ 'DS-S006L servo v1.step',
/* time_stamp */ '2026-04-30T11:05:33+01:00',
/* author */ (''),
/* organization */ (''),
/* preprocessor_version */ 'ST-DEVELOPER v20.1',
/* originating_system */ 'Autodesk Translation Framework v14.24.0.0',
/* authorisation */ '');

FILE_SCHEMA (('AUTOMOTIVE_DESIGN { 1 0 10303 214 3 1 1 }'));
ENDSEC;

DATA;
#10=MECHANICAL_DESIGN_GEOMETRIC_PRESENTATION_REPRESENTATION('',(#13),#1198);
#11=SHAPE_REPRESENTATION_RELATIONSHIP('SRR','None',#1205,#12);
#12=ADVANCED_BREP_SHAPE_REPRESENTATION('',(#14),#1197);
#13=STYLED_ITEM('',(#1215),#14);
#14=MANIFOLD_SOLID_BREP('Body1',#706);
#15=ELLIPSE('',#778,0.707106781186548,0.5);
#16=ELLIPSE('',#781,0.707106781186548,0.5);
#17=FACE_BOUND('',#84,.T.);
#18=FACE_BOUND('',#90,.T.);
#19=FACE_BOUND('',#115,.T.);
#20=PLANE('',#723);
#21=PLANE('',#731);
#22=PLANE('',#734);
#23=PLANE('',#735);
#24=PLANE('',#739);
#25=PLANE('',#740);
#26=PLANE('',#743);
#27=PLANE('',#744);
#28=PLANE('',#745);
#29=PLANE('',#748);
#30=PLANE('',#751);
#31=PLANE('',#754);
#32=PLANE('',#755);
#33=PLANE('',#756);
#34=PLANE('',#760);
#35=PLANE('',#761);
#36=PLANE('',#762);
#37=PLANE('',#765);
#38=PLANE('',#770);
#39=PLANE('',#775);
#40=PLANE('',#779);
#41=PLANE('',#780);
#42=PLANE('',#783);
#43=PLANE('',#785);
#44=FACE_OUTER_BOUND('',#82,.T.);
#45=FACE_OUTER_BOUND('',#83,.T.);
#46=FACE_OUTER_BOUND('',#85,.T.);
#47=FACE_OUTER_BOUND('',#86,.T.);
#48=FACE_OUTER_BOUND('',#87,.T.);
#49=FACE_OUTER_BOUND('',#88,.T.);
#50=FACE_OUTER_BOUND('',#89,.T.);
#51=FACE_OUTER_BOUND('',#91,.T.);
#52=FACE_OUTER_BOUND('',#92,.T.);
#53=FACE_OUTER_BOUND('',#93,.T.);
#54=FACE_OUTER_BOUND('',#94,.T.);
#55=FACE_OUTER_BOUND('',#95,.T.);
#56=FACE_OUTER_BOUND('',#96,.T.);
#57=FACE_OUTER_BOUND('',#97,.T.);
#58=FACE_OUTER_BOUND('',#98,.T.);
#59=FACE_OUTER_BOUND('',#99,.T.);
#60=FACE_OUTER_BOUND('',#100,.T.);
#61=FACE_OUTER_BOUND('',#101,.T.);
#62=FACE_OUTER_BOUND('',#102,.T.);
#63=FACE_OUTER_BOUND('',#103,.T.);
#64=FACE_OUTER_BOUND('',#104,.T.);
#65=FACE_OUTER_BOUND('',#105,.T.);
#66=FACE_OUTER_BOUND('',#106,.T.);
#67=FACE_OUTER_BOUND('',#107,.T.);
#68=FACE_OUTER_BOUND('',#108,.T.);
#69=FACE_OUTER_BOUND('',#109,.T.);
#70=FACE_OUTER_BOUND('',#110,.T.);
#71=FACE_OUTER_BOUND('',#111,.T.);
#72=FACE_OUTER_BOUND('',#112,.T.);
#73=FACE_OUTER_BOUND('',#113,.T.);
#74=FACE_OUTER_BOUND('',#114,.T.);
#75=FACE_OUTER_BOUND('',#116,.T.);
#76=FACE_OUTER_BOUND('',#117,.T.);
#77=FACE_OUTER_BOUND('',#118,.T.);
#78=FACE_OUTER_BOUND('',#119,.T.);
#79=FACE_OUTER_BOUND('',#120,.T.);
#80=FACE_OUTER_BOUND('',#121,.T.);
#81=FACE_OUTER_BOUND('',#122,.T.);
#82=EDGE_LOOP('',(#456,#457,#458,#459));
#83=EDGE_LOOP('',(#460,#461));
#84=EDGE_LOOP('',(#462));
#85=EDGE_LOOP('',(#463,#464,#465,#466));
#86=EDGE_LOOP('',(#467,#468,#469,#470));
#87=EDGE_LOOP('',(#471));
#88=EDGE_LOOP('',(#472,#473,#474,#475));
#89=EDGE_LOOP('',(#476));
#90=EDGE_LOOP('',(#477));
#91=EDGE_LOOP('',(#478,#479,#480,#481,#482,#483,#484,#485,#486,#487));
#92=EDGE_LOOP('',(#488,#489,#490,#491));
#93=EDGE_LOOP('',(#492,#493,#494,#495));
#94=EDGE_LOOP('',(#496,#497,#498,#499));
#95=EDGE_LOOP('',(#500,#501,#502,#503));
#96=EDGE_LOOP('',(#504,#505,#506,#507));
#97=EDGE_LOOP('',(#508,#509,#510,#511,#512,#513,#514,#515,#516,#517));
#98=EDGE_LOOP('',(#518,#519,#520,#521,#522,#523,#524,#525,#526,#527,#528,
#529,#530));
#99=EDGE_LOOP('',(#531,#532,#533,#534));
#100=EDGE_LOOP('',(#535,#536,#537,#538));
#101=EDGE_LOOP('',(#539,#540,#541,#542));
#102=EDGE_LOOP('',(#543,#544,#545,#546,#547,#548,#549,#550,#551,#552,#553,
#554,#555));
#103=EDGE_LOOP('',(#556,#557,#558,#559));
#104=EDGE_LOOP('',(#560,#561,#562,#563));
#105=EDGE_LOOP('',(#564,#565,#566,#567));
#106=EDGE_LOOP('',(#568,#569,#570,#571));
#107=EDGE_LOOP('',(#572,#573,#574,#575));
#108=EDGE_LOOP('',(#576,#577,#578,#579,#580,#581,#582,#583,#584,#585));
#109=EDGE_LOOP('',(#586,#587,#588,#589,#590,#591,#592,#593,#594,#595));
#110=EDGE_LOOP('',(#596,#597,#598,#599));
#111=EDGE_LOOP('',(#600,#601,#602,#603));
#112=EDGE_LOOP('',(#604,#605,#606,#607));
#113=EDGE_LOOP('',(#608,#609,#610,#611));
#114=EDGE_LOOP('',(#612,#613,#614,#615,#616,#617));
#115=EDGE_LOOP('',(#618,#619));
#116=EDGE_LOOP('',(#620,#621,#622,#623));
#117=EDGE_LOOP('',(#624,#625,#626,#627));
#118=EDGE_LOOP('',(#628,#629,#630,#631,#632,#633));
#119=EDGE_LOOP('',(#634,#635,#636,#637));
#120=EDGE_LOOP('',(#638,#639,#640,#641,#642,#643,#644,#645));
#121=EDGE_LOOP('',(#646,#647,#648,#649));
#122=EDGE_LOOP('',(#650,#651,#652,#653));
#123=CIRCLE('',#721,3.);
#124=CIRCLE('',#722,3.);
#125=CIRCLE('',#724,5.775);
#126=CIRCLE('',#725,2.3);
#127=CIRCLE('',#727,5.775);
#128=CIRCLE('',#729,1.);
#129=CIRCLE('',#730,1.);
#130=CIRCLE('',#733,2.3);
#131=CIRCLE('',#736,0.5);
#132=CIRCLE('',#737,0.5);
#133=CIRCLE('',#738,1.1);
#134=CIRCLE('',#742,1.1);
#135=CIRCLE('',#746,0.5);
#136=CIRCLE('',#747,0.5);
#137=CIRCLE('',#750,0.5);
#138=CIRCLE('',#753,0.5);
#139=CIRCLE('',#758,1.1);
#140=CIRCLE('',#759,1.1);
#141=CIRCLE('',#763,0.5);
#142=CIRCLE('',#764,0.5);
#143=CIRCLE('',#766,0.5);
#144=CIRCLE('',#767,0.5);
#145=CIRCLE('',#769,0.5);
#146=CIRCLE('',#772,0.5);
#147=CIRCLE('',#774,0.5);
#148=CIRCLE('',#776,0.5);
#149=LINE('',#995,#220);
#150=LINE('',#999,#221);
#151=LINE('',#1011,#222);
#152=LINE('',#1017,#223);
#153=LINE('',#1024,#224);
#154=LINE('',#1028,#225);
#155=LINE('',#1030,#226);
#156=LINE('',#1032,#227);
#157=LINE('',#1036,#228);
#158=LINE('',#1038,#229);
#159=LINE('',#1039,#230);
#160=LINE('',#1042,#231);
#161=LINE('',#1044,#232);
#162=LINE('',#1045,#233);
#163=LINE('',#1048,#234);
#164=LINE('',#1049,#235);
#165=LINE('',#1053,#236);
#166=LINE('',#1056,#237);
#167=LINE('',#1057,#238);
#168=LINE('',#1060,#239);
#169=LINE('',#1061,#240);
#170=LINE('',#1066,#241);
#171=LINE('',#1068,#242);
#172=LINE('',#1071,#243);
#173=LINE('',#1074,#244);
#174=LINE('',#1076,#245);
#175=LINE('',#1078,#246);
#176=LINE('',#1080,#247);
#177=LINE('',#1082,#248);
#178=LINE('',#1084,#249);
#179=LINE('',#1086,#250);
#180=LINE('',#1088,#251);
#181=LINE('',#1090,#252);
#182=LINE('',#1091,#253);
#183=LINE('',#1094,#254);
#184=LINE('',#1098,#255);
#185=LINE('',#1099,#256);
#186=LINE('',#1102,#257);
#187=LINE('',#1106,#258);
#188=LINE('',#1108,#259);
#189=LINE('',#1110,#260);
#190=LINE('',#1112,#261);
#191=LINE('',#1114,#262);
#192=LINE('',#1116,#263);
#193=LINE('',#1118,#264);
#194=LINE('',#1120,#265);
#195=LINE('',#1121,#266);
#196=LINE('',#1124,#267);
#197=LINE('',#1126,#268);
#198=LINE('',#1127,#269);
#199=LINE('',#1130,#270);
#200=LINE('',#1132,#271);
#201=LINE('',#1133,#272);
#202=LINE('',#1139,#273);
#203=LINE('',#1142,#274);
#204=LINE('',#1144,#275);
#205=LINE('',#1145,#276);
#206=LINE('',#1147,#277);
#207=LINE('',#1148,#278);
#208=LINE('',#1153,#279);
#209=LINE('',#1159,#280);
#210=LINE('',#1163,#281);
#211=LINE('',#1167,#282);
#212=LINE('',#1168,#283);
#213=LINE('',#1173,#284);
#214=LINE('',#1177,#285);
#215=LINE('',#1179,#286);
#216=LINE('',#1183,#287);
#217=LINE('',#1186,#288);
#218=LINE('',#1187,#289);
#219=LINE('',#1193,#290);
#220=VECTOR('',#790,10.);
#221=VECTOR('',#793,10.);
#222=VECTOR('',#810,1.);
#223=VECTOR('',#819,2.3);
#224=VECTOR('',#826,10.);
#225=VECTOR('',#829,10.);
#226=VECTOR('',#830,10.);
#227=VECTOR('',#831,10.);
#228=VECTOR('',#834,10.);
#229=VECTOR('',#835,10.);
#230=VECTOR('',#836,10.);
#231=VECTOR('',#839,10.);
#232=VECTOR('',#840,10.);
#233=VECTOR('',#841,10.);
#234=VECTOR('',#844,10.);
#235=VECTOR('',#845,10.);
#236=VECTOR('',#850,10.);
#237=VECTOR('',#853,10.);
#238=VECTOR('',#854,10.);
#239=VECTOR('',#857,10.);
#240=VECTOR('',#858,10.);
#241=VECTOR('',#863,10.);
#242=VECTOR('',#864,10.);
#243=VECTOR('',#867,10.);
#244=VECTOR('',#870,10.);
#245=VECTOR('',#871,10.);
#246=VECTOR('',#872,10.);
#247=VECTOR('',#873,10.);
#248=VECTOR('',#874,10.);
#249=VECTOR('',#875,10.);
#250=VECTOR('',#876,10.);
#251=VECTOR('',#877,10.);
#252=VECTOR('',#878,10.);
#253=VECTOR('',#879,10.);
#254=VECTOR('',#882,10.);
#255=VECTOR('',#887,10.);
#256=VECTOR('',#888,10.);
#257=VECTOR('',#891,10.);
#258=VECTOR('',#896,10.);
#259=VECTOR('',#897,10.);
#260=VECTOR('',#898,10.);
#261=VECTOR('',#899,10.);
#262=VECTOR('',#900,10.);
#263=VECTOR('',#901,10.);
#264=VECTOR('',#902,10.);
#265=VECTOR('',#903,10.);
#266=VECTOR('',#904,10.);
#267=VECTOR('',#907,10.);
#268=VECTOR('',#908,10.);
#269=VECTOR('',#909,10.);
#270=VECTOR('',#912,10.);
#271=VECTOR('',#913,10.);
#272=VECTOR('',#914,10.);
#273=VECTOR('',#921,10.);
#274=VECTOR('',#924,10.);
#275=VECTOR('',#925,10.);
#276=VECTOR('',#926,10.);
#277=VECTOR('',#929,10.);
#278=VECTOR('',#930,10.);
#279=VECTOR('',#935,10.);
#280=VECTOR('',#942,10.);
#281=VECTOR('',#947,10.);
#282=VECTOR('',#952,10.);
#283=VECTOR('',#953,10.);
#284=VECTOR('',#960,10.);
#285=VECTOR('',#965,10.);
#286=VECTOR('',#968,10.);
#287=VECTOR('',#973,10.);
#288=VECTOR('',#976,10.);
#289=VECTOR('',#977,10.);
#290=VECTOR('',#988,10.);
#291=VERTEX_POINT('',#993);
#292=VERTEX_POINT('',#994);
#293=VERTEX_POINT('',#996);
#294=VERTEX_POINT('',#998);
#295=VERTEX_POINT('',#1003);
#296=VERTEX_POINT('',#1008);
#297=VERTEX_POINT('',#1010);
#298=VERTEX_POINT('',#1015);
#299=VERTEX_POINT('',#1020);
#300=VERTEX_POINT('',#1021);
#301=VERTEX_POINT('',#1023);
#302=VERTEX_POINT('',#1025);
#303=VERTEX_POINT('',#1027);
#304=VERTEX_POINT('',#1029);
#305=VERTEX_POINT('',#1031);
#306=VERTEX_POINT('',#1033);
#307=VERTEX_POINT('',#1035);
#308=VERTEX_POINT('',#1037);
#309=VERTEX_POINT('',#1041);
#310=VERTEX_POINT('',#1043);
#311=VERTEX_POINT('',#1047);
#312=VERTEX_POINT('',#1051);
#313=VERTEX_POINT('',#1055);
#314=VERTEX_POINT('',#1059);
#315=VERTEX_POINT('',#1063);
#316=VERTEX_POINT('',#1064);
#317=VERTEX_POINT('',#1067);
#318=VERTEX_POINT('',#1069);
#319=VERTEX_POINT('',#1073);
#320=VERTEX_POINT('',#1075);
#321=VERTEX_POINT('',#1077);
#322=VERTEX_POINT('',#1079);
#323=VERTEX_POINT('',#1081);
#324=VERTEX_POINT('',#1083);
#325=VERTEX_POINT('',#1085);
#326=VERTEX_POINT('',#1087);
#327=VERTEX_POINT('',#1089);
#328=VERTEX_POINT('',#1093);
#329=VERTEX_POINT('',#1097);
#330=VERTEX_POINT('',#1101);
#331=VERTEX_POINT('',#1105);
#332=VERTEX_POINT('',#1107);
#333=VERTEX_POINT('',#1109);
#334=VERTEX_POINT('',#1111);
#335=VERTEX_POINT('',#1113);
#336=VERTEX_POINT('',#1115);
#337=VERTEX_POINT('',#1117);
#338=VERTEX_POINT('',#1119);
#339=VERTEX_POINT('',#1123);
#340=VERTEX_POINT('',#1125);
#341=VERTEX_POINT('',#1129);
#342=VERTEX_POINT('',#1131);
#343=VERTEX_POINT('',#1135);
#344=VERTEX_POINT('',#1137);
#345=VERTEX_POINT('',#1141);
#346=VERTEX_POINT('',#1143);
#347=VERTEX_POINT('',#1150);
#348=VERTEX_POINT('',#1152);
#349=VERTEX_POINT('',#1156);
#350=VERTEX_POINT('',#1158);
#351=VERTEX_POINT('',#1162);
#352=VERTEX_POINT('',#1166);
#353=VERTEX_POINT('',#1172);
#354=VERTEX_POINT('',#1176);
#355=VERTEX_POINT('',#1181);
#356=VERTEX_POINT('',#1185);
#357=EDGE_CURVE('',#291,#292,#149,.T.);
#358=EDGE_CURVE('',#293,#291,#123,.T.);
#359=EDGE_CURVE('',#294,#293,#150,.T.);
#360=EDGE_CURVE('',#292,#294,#124,.T.);
#361=EDGE_CURVE('',#294,#292,#125,.T.);
#362=EDGE_CURVE('',#295,#295,#126,.T.);
#363=EDGE_CURVE('',#291,#293,#127,.T.);
#364=EDGE_CURVE('',#296,#296,#128,.T.);
#365=EDGE_CURVE('',#296,#297,#151,.T.);
#366=EDGE_CURVE('',#297,#297,#129,.T.);
#367=EDGE_CURVE('',#298,#298,#130,.T.);
#368=EDGE_CURVE('',#298,#295,#152,.T.);
#369=EDGE_CURVE('',#299,#300,#131,.T.);
#370=EDGE_CURVE('',#301,#299,#153,.T.);
#371=EDGE_CURVE('',#302,#301,#132,.T.);
#372=EDGE_CURVE('',#303,#302,#154,.T.);
#373=EDGE_CURVE('',#304,#303,#155,.T.);
#374=EDGE_CURVE('',#305,#304,#156,.T.);
#375=EDGE_CURVE('',#306,#305,#133,.T.);
#376=EDGE_CURVE('',#307,#306,#157,.T.);
#377=EDGE_CURVE('',#308,#307,#158,.T.);
#378=EDGE_CURVE('',#300,#308,#159,.T.);
#379=EDGE_CURVE('',#303,#309,#160,.T.);
#380=EDGE_CURVE('',#310,#309,#161,.T.);
#381=EDGE_CURVE('',#304,#310,#162,.T.);
#382=EDGE_CURVE('',#311,#310,#163,.T.);
#383=EDGE_CURVE('',#305,#311,#164,.T.);
#384=EDGE_CURVE('',#312,#311,#134,.T.);
#385=EDGE_CURVE('',#306,#312,#165,.T.);
#386=EDGE_CURVE('',#313,#312,#166,.T.);
#387=EDGE_CURVE('',#307,#313,#167,.T.);
#388=EDGE_CURVE('',#314,#313,#168,.T.);
#389=EDGE_CURVE('',#308,#314,#169,.T.);
#390=EDGE_CURVE('',#315,#316,#135,.T.);
#391=EDGE_CURVE('',#315,#314,#170,.T.);
#392=EDGE_CURVE('',#309,#317,#171,.T.);
#393=EDGE_CURVE('',#318,#317,#136,.T.);
#394=EDGE_CURVE('',#316,#318,#172,.T.);
#395=EDGE_CURVE('',#319,#315,#173,.T.);
#396=EDGE_CURVE('',#320,#319,#174,.T.);
#397=EDGE_CURVE('',#321,#320,#175,.T.);
#398=EDGE_CURVE('',#322,#321,#176,.T.);
#399=EDGE_CURVE('',#323,#322,#177,.T.);
#400=EDGE_CURVE('',#323,#324,#178,.T.);
#401=EDGE_CURVE('',#325,#324,#179,.T.);
#402=EDGE_CURVE('',#326,#325,#180,.T.);
#403=EDGE_CURVE('',#327,#326,#181,.T.);
#404=EDGE_CURVE('',#300,#327,#182,.T.);
#405=EDGE_CURVE('',#316,#328,#183,.T.);
#406=EDGE_CURVE('',#328,#319,#137,.T.);
#407=EDGE_CURVE('',#329,#318,#184,.T.);
#408=EDGE_CURVE('',#328,#329,#185,.T.);
#409=EDGE_CURVE('',#317,#330,#186,.T.);
#410=EDGE_CURVE('',#330,#329,#138,.T.);
#411=EDGE_CURVE('',#331,#302,#187,.T.);
#412=EDGE_CURVE('',#332,#331,#188,.T.);
#413=EDGE_CURVE('',#333,#332,#189,.T.);
#414=EDGE_CURVE('',#334,#333,#190,.T.);
#415=EDGE_CURVE('',#334,#335,#191,.T.);
#416=EDGE_CURVE('',#335,#336,#192,.T.);
#417=EDGE_CURVE('',#337,#336,#193,.T.);
#418=EDGE_CURVE('',#338,#337,#194,.T.);
#419=EDGE_CURVE('',#330,#338,#195,.T.);
#420=EDGE_CURVE('',#339,#323,#196,.T.);
#421=EDGE_CURVE('',#340,#322,#197,.T.);
#422=EDGE_CURVE('',#339,#340,#198,.T.);
#423=EDGE_CURVE('',#341,#339,#199,.T.);
#424=EDGE_CURVE('',#342,#340,#200,.T.);
#425=EDGE_CURVE('',#341,#342,#201,.T.);
#426=EDGE_CURVE('',#343,#341,#139,.T.);
#427=EDGE_CURVE('',#344,#342,#140,.T.);
#428=EDGE_CURVE('',#343,#344,#202,.T.);
#429=EDGE_CURVE('',#345,#343,#203,.T.);
#430=EDGE_CURVE('',#346,#344,#204,.T.);
#431=EDGE_CURVE('',#345,#346,#205,.T.);
#432=EDGE_CURVE('',#335,#345,#206,.T.);
#433=EDGE_CURVE('',#336,#346,#207,.T.);
#434=EDGE_CURVE('',#347,#334,#141,.T.);
#435=EDGE_CURVE('',#348,#347,#208,.T.);
#436=EDGE_CURVE('',#324,#348,#142,.T.);
#437=EDGE_CURVE('',#349,#321,#143,.T.);
#438=EDGE_CURVE('',#350,#349,#209,.T.);
#439=EDGE_CURVE('',#337,#350,#144,.T.);
#440=EDGE_CURVE('',#350,#351,#210,.T.);
#441=EDGE_CURVE('',#351,#338,#145,.T.);
#442=EDGE_CURVE('',#352,#349,#211,.T.);
#443=EDGE_CURVE('',#351,#352,#212,.T.);
#444=EDGE_CURVE('',#320,#352,#146,.T.);
#445=EDGE_CURVE('',#348,#353,#213,.T.);
#446=EDGE_CURVE('',#353,#325,#147,.T.);
#447=EDGE_CURVE('',#353,#354,#214,.T.);
#448=EDGE_CURVE('',#333,#354,#148,.T.);
#449=EDGE_CURVE('',#326,#332,#215,.T.);
#450=EDGE_CURVE('',#327,#355,#15,.T.);
#451=EDGE_CURVE('',#355,#299,#216,.T.);
#452=EDGE_CURVE('',#356,#355,#217,.T.);
#453=EDGE_CURVE('',#301,#356,#218,.T.);
#454=EDGE_CURVE('',#356,#331,#16,.T.);
#455=EDGE_CURVE('',#354,#347,#219,.T.);
#456=ORIENTED_EDGE('',*,*,#357,.F.);
#457=ORIENTED_EDGE('',*,*,#358,.F.);
#458=ORIENTED_EDGE('',*,*,#359,.F.);
#459=ORIENTED_EDGE('',*,*,#360,.F.);
#460=ORIENTED_EDGE('',*,*,#361,.T.);
#461=ORIENTED_EDGE('',*,*,#360,.T.);
#462=ORIENTED_EDGE('',*,*,#362,.T.);
#463=ORIENTED_EDGE('',*,*,#357,.T.);
#464=ORIENTED_EDGE('',*,*,#361,.F.);
#465=ORIENTED_EDGE('',*,*,#359,.T.);
#466=ORIENTED_EDGE('',*,*,#363,.F.);
#467=ORIENTED_EDGE('',*,*,#364,.F.);
#468=ORIENTED_EDGE('',*,*,#365,.T.);
#469=ORIENTED_EDGE('',*,*,#366,.T.);
#470=ORIENTED_EDGE('',*,*,#365,.F.);
#471=ORIENTED_EDGE('',*,*,#366,.F.);
#472=ORIENTED_EDGE('',*,*,#367,.F.);
#473=ORIENTED_EDGE('',*,*,#368,.T.);
#474=ORIENTED_EDGE('',*,*,#362,.F.);
#475=ORIENTED_EDGE('',*,*,#368,.F.);
#476=ORIENTED_EDGE('',*,*,#367,.T.);
#477=ORIENTED_EDGE('',*,*,#364,.T.);
#478=ORIENTED_EDGE('',*,*,#369,.F.);
#479=ORIENTED_EDGE('',*,*,#370,.F.);
#480=ORIENTED_EDGE('',*,*,#371,.F.);
#481=ORIENTED_EDGE('',*,*,#372,.F.);
#482=ORIENTED_EDGE('',*,*,#373,.F.);
#483=ORIENTED_EDGE('',*,*,#374,.F.);
#484=ORIENTED_EDGE('',*,*,#375,.F.);
#485=ORIENTED_EDGE('',*,*,#376,.F.);
#486=ORIENTED_EDGE('',*,*,#377,.F.);
#487=ORIENTED_EDGE('',*,*,#378,.F.);
#488=ORIENTED_EDGE('',*,*,#373,.T.);
#489=ORIENTED_EDGE('',*,*,#379,.T.);
#490=ORIENTED_EDGE('',*,*,#380,.F.);
#491=ORIENTED_EDGE('',*,*,#381,.F.);
#492=ORIENTED_EDGE('',*,*,#374,.T.);
#493=ORIENTED_EDGE('',*,*,#381,.T.);
#494=ORIENTED_EDGE('',*,*,#382,.F.);
#495=ORIENTED_EDGE('',*,*,#383,.F.);
#496=ORIENTED_EDGE('',*,*,#375,.T.);
#497=ORIENTED_EDGE('',*,*,#383,.T.);
#498=ORIENTED_EDGE('',*,*,#384,.F.);
#499=ORIENTED_EDGE('',*,*,#385,.F.);
#500=ORIENTED_EDGE('',*,*,#376,.T.);
#501=ORIENTED_EDGE('',*,*,#385,.T.);
#502=ORIENTED_EDGE('',*,*,#386,.F.);
#503=ORIENTED_EDGE('',*,*,#387,.F.);
#504=ORIENTED_EDGE('',*,*,#377,.T.);
#505=ORIENTED_EDGE('',*,*,#387,.T.);
#506=ORIENTED_EDGE('',*,*,#388,.F.);
#507=ORIENTED_EDGE('',*,*,#389,.F.);
#508=ORIENTED_EDGE('',*,*,#390,.F.);
#509=ORIENTED_EDGE('',*,*,#391,.T.);
#510=ORIENTED_EDGE('',*,*,#388,.T.);
#511=ORIENTED_EDGE('',*,*,#386,.T.);
#512=ORIENTED_EDGE('',*,*,#384,.T.);
#513=ORIENTED_EDGE('',*,*,#382,.T.);
#514=ORIENTED_EDGE('',*,*,#380,.T.);
#515=ORIENTED_EDGE('',*,*,#392,.T.);
#516=ORIENTED_EDGE('',*,*,#393,.F.);
#517=ORIENTED_EDGE('',*,*,#394,.F.);
#518=ORIENTED_EDGE('',*,*,#395,.F.);
#519=ORIENTED_EDGE('',*,*,#396,.F.);
#520=ORIENTED_EDGE('',*,*,#397,.F.);
#521=ORIENTED_EDGE('',*,*,#398,.F.);
#522=ORIENTED_EDGE('',*,*,#399,.F.);
#523=ORIENTED_EDGE('',*,*,#400,.T.);
#524=ORIENTED_EDGE('',*,*,#401,.F.);
#525=ORIENTED_EDGE('',*,*,#402,.F.);
#526=ORIENTED_EDGE('',*,*,#403,.F.);
#527=ORIENTED_EDGE('',*,*,#404,.F.);
#528=ORIENTED_EDGE('',*,*,#378,.T.);
#529=ORIENTED_EDGE('',*,*,#389,.T.);
#530=ORIENTED_EDGE('',*,*,#391,.F.);
#531=ORIENTED_EDGE('',*,*,#390,.T.);
#532=ORIENTED_EDGE('',*,*,#405,.T.);
#533=ORIENTED_EDGE('',*,*,#406,.T.);
#534=ORIENTED_EDGE('',*,*,#395,.T.);
#535=ORIENTED_EDGE('',*,*,#394,.T.);
#536=ORIENTED_EDGE('',*,*,#407,.F.);
#537=ORIENTED_EDGE('',*,*,#408,.F.);
#538=ORIENTED_EDGE('',*,*,#405,.F.);
#539=ORIENTED_EDGE('',*,*,#393,.T.);
#540=ORIENTED_EDGE('',*,*,#409,.T.);
#541=ORIENTED_EDGE('',*,*,#410,.T.);
#542=ORIENTED_EDGE('',*,*,#407,.T.);
#543=ORIENTED_EDGE('',*,*,#411,.F.);
#544=ORIENTED_EDGE('',*,*,#412,.F.);
#545=ORIENTED_EDGE('',*,*,#413,.F.);
#546=ORIENTED_EDGE('',*,*,#414,.F.);
#547=ORIENTED_EDGE('',*,*,#415,.T.);
#548=ORIENTED_EDGE('',*,*,#416,.T.);
#549=ORIENTED_EDGE('',*,*,#417,.F.);
#550=ORIENTED_EDGE('',*,*,#418,.F.);
#551=ORIENTED_EDGE('',*,*,#419,.F.);
#552=ORIENTED_EDGE('',*,*,#409,.F.);
#553=ORIENTED_EDGE('',*,*,#392,.F.);
#554=ORIENTED_EDGE('',*,*,#379,.F.);
#555=ORIENTED_EDGE('',*,*,#372,.T.);
#556=ORIENTED_EDGE('',*,*,#420,.T.);
#557=ORIENTED_EDGE('',*,*,#399,.T.);
#558=ORIENTED_EDGE('',*,*,#421,.F.);
#559=ORIENTED_EDGE('',*,*,#422,.F.);
#560=ORIENTED_EDGE('',*,*,#423,.T.);
#561=ORIENTED_EDGE('',*,*,#422,.T.);
#562=ORIENTED_EDGE('',*,*,#424,.F.);
#563=ORIENTED_EDGE('',*,*,#425,.F.);
#564=ORIENTED_EDGE('',*,*,#426,.T.);
#565=ORIENTED_EDGE('',*,*,#425,.T.);
#566=ORIENTED_EDGE('',*,*,#427,.F.);
#567=ORIENTED_EDGE('',*,*,#428,.F.);
#568=ORIENTED_EDGE('',*,*,#429,.T.);
#569=ORIENTED_EDGE('',*,*,#428,.T.);
#570=ORIENTED_EDGE('',*,*,#430,.F.);
#571=ORIENTED_EDGE('',*,*,#431,.F.);
#572=ORIENTED_EDGE('',*,*,#432,.T.);
#573=ORIENTED_EDGE('',*,*,#431,.T.);
#574=ORIENTED_EDGE('',*,*,#433,.F.);
#575=ORIENTED_EDGE('',*,*,#416,.F.);
#576=ORIENTED_EDGE('',*,*,#415,.F.);
#577=ORIENTED_EDGE('',*,*,#434,.F.);
#578=ORIENTED_EDGE('',*,*,#435,.F.);
#579=ORIENTED_EDGE('',*,*,#436,.F.);
#580=ORIENTED_EDGE('',*,*,#400,.F.);
#581=ORIENTED_EDGE('',*,*,#420,.F.);
#582=ORIENTED_EDGE('',*,*,#423,.F.);
#583=ORIENTED_EDGE('',*,*,#426,.F.);
#584=ORIENTED_EDGE('',*,*,#429,.F.);
#585=ORIENTED_EDGE('',*,*,#432,.F.);
#586=ORIENTED_EDGE('',*,*,#417,.T.);
#587=ORIENTED_EDGE('',*,*,#433,.T.);
#588=ORIENTED_EDGE('',*,*,#430,.T.);
#589=ORIENTED_EDGE('',*,*,#427,.T.);
#590=ORIENTED_EDGE('',*,*,#424,.T.);
#591=ORIENTED_EDGE('',*,*,#421,.T.);
#592=ORIENTED_EDGE('',*,*,#398,.T.);
#593=ORIENTED_EDGE('',*,*,#437,.F.);
#594=ORIENTED_EDGE('',*,*,#438,.F.);
#595=ORIENTED_EDGE('',*,*,#439,.F.);
#596=ORIENTED_EDGE('',*,*,#439,.T.);
#597=ORIENTED_EDGE('',*,*,#440,.T.);
#598=ORIENTED_EDGE('',*,*,#441,.T.);
#599=ORIENTED_EDGE('',*,*,#418,.T.);
#600=ORIENTED_EDGE('',*,*,#438,.T.);
#601=ORIENTED_EDGE('',*,*,#442,.F.);
#602=ORIENTED_EDGE('',*,*,#443,.F.);
#603=ORIENTED_EDGE('',*,*,#440,.F.);
#604=ORIENTED_EDGE('',*,*,#437,.T.);
#605=ORIENTED_EDGE('',*,*,#397,.T.);
#606=ORIENTED_EDGE('',*,*,#444,.T.);
#607=ORIENTED_EDGE('',*,*,#442,.T.);
#608=ORIENTED_EDGE('',*,*,#436,.T.);
#609=ORIENTED_EDGE('',*,*,#445,.T.);
#610=ORIENTED_EDGE('',*,*,#446,.T.);
#611=ORIENTED_EDGE('',*,*,#401,.T.);
#612=ORIENTED_EDGE('',*,*,#446,.F.);
#613=ORIENTED_EDGE('',*,*,#447,.T.);
#614=ORIENTED_EDGE('',*,*,#448,.F.);
#615=ORIENTED_EDGE('',*,*,#413,.T.);
#616=ORIENTED_EDGE('',*,*,#449,.F.);
#617=ORIENTED_EDGE('',*,*,#402,.T.);
#618=ORIENTED_EDGE('',*,*,#358,.T.);
#619=ORIENTED_EDGE('',*,*,#363,.T.);
#620=ORIENTED_EDGE('',*,*,#369,.T.);
#621=ORIENTED_EDGE('',*,*,#404,.T.);
#622=ORIENTED_EDGE('',*,*,#450,.T.);
#623=ORIENTED_EDGE('',*,*,#451,.T.);
#624=ORIENTED_EDGE('',*,*,#370,.T.);
#625=ORIENTED_EDGE('',*,*,#451,.F.);
#626=ORIENTED_EDGE('',*,*,#452,.F.);
#627=ORIENTED_EDGE('',*,*,#453,.F.);
#628=ORIENTED_EDGE('',*,*,#450,.F.);
#629=ORIENTED_EDGE('',*,*,#403,.T.);
#630=ORIENTED_EDGE('',*,*,#449,.T.);
#631=ORIENTED_EDGE('',*,*,#412,.T.);
#632=ORIENTED_EDGE('',*,*,#454,.F.);
#633=ORIENTED_EDGE('',*,*,#452,.T.);
#634=ORIENTED_EDGE('',*,*,#371,.T.);
#635=ORIENTED_EDGE('',*,*,#453,.T.);
#636=ORIENTED_EDGE('',*,*,#454,.T.);
#637=ORIENTED_EDGE('',*,*,#411,.T.);
#638=ORIENTED_EDGE('',*,*,#444,.F.);
#639=ORIENTED_EDGE('',*,*,#396,.T.);
#640=ORIENTED_EDGE('',*,*,#406,.F.);
#641=ORIENTED_EDGE('',*,*,#408,.T.);
#642=ORIENTED_EDGE('',*,*,#410,.F.);
#643=ORIENTED_EDGE('',*,*,#419,.T.);
#644=ORIENTED_EDGE('',*,*,#441,.F.);
#645=ORIENTED_EDGE('',*,*,#443,.T.);
#646=ORIENTED_EDGE('',*,*,#434,.T.);
#647=ORIENTED_EDGE('',*,*,#414,.T.);
#648=ORIENTED_EDGE('',*,*,#448,.T.);
#649=ORIENTED_EDGE('',*,*,#455,.T.);
#650=ORIENTED_EDGE('',*,*,#435,.T.);
#651=ORIENTED_EDGE('',*,*,#455,.F.);
#652=ORIENTED_EDGE('',*,*,#447,.F.);
#653=ORIENTED_EDGE('',*,*,#445,.F.);
#654=CYLINDRICAL_SURFACE('',#720,3.);
#655=CYLINDRICAL_SURFACE('',#726,5.775);
#656=CYLINDRICAL_SURFACE('',#728,1.);
#657=CYLINDRICAL_SURFACE('',#732,2.3);
#658=CYLINDRICAL_SURFACE('',#741,1.1);
#659=CYLINDRICAL_SURFACE('',#749,0.5);
#660=CYLINDRICAL_SURFACE('',#752,0.5);
#661=CYLINDRICAL_SURFACE('',#757,1.1);
#662=CYLINDRICAL_SURFACE('',#768,0.5);
#663=CYLINDRICAL_SURFACE('',#771,0.5);
#664=CYLINDRICAL_SURFACE('',#773,0.5);
#665=CYLINDRICAL_SURFACE('',#777,0.5);
#666=CYLINDRICAL_SURFACE('',#782,0.5);
#667=CYLINDRICAL_SURFACE('',#784,0.5);
#668=ADVANCED_FACE('',(#44),#654,.T.);
#669=ADVANCED_FACE('',(#45,#17),#20,.T.);
#670=ADVANCED_FACE('',(#46),#655,.T.);
#671=ADVANCED_FACE('',(#47),#656,.F.);
#672=ADVANCED_FACE('',(#48),#21,.F.);
#673=ADVANCED_FACE('',(#49),#657,.T.);
#674=ADVANCED_FACE('',(#50,#18),#22,.T.);
#675=ADVANCED_FACE('',(#51),#23,.T.);
#676=ADVANCED_FACE('',(#52),#24,.T.);
#677=ADVANCED_FACE('',(#53),#25,.T.);
#678=ADVANCED_FACE('',(#54),#658,.F.);
#679=ADVANCED_FACE('',(#55),#26,.T.);
#680=ADVANCED_FACE('',(#56),#27,.T.);
#681=ADVANCED_FACE('',(#57),#28,.F.);
#682=ADVANCED_FACE('',(#58),#29,.F.);
#683=ADVANCED_FACE('',(#59),#659,.T.);
#684=ADVANCED_FACE('',(#60),#30,.F.);
#685=ADVANCED_FACE('',(#61),#660,.T.);
#686=ADVANCED_FACE('',(#62),#31,.F.);
#687=ADVANCED_FACE('',(#63),#32,.T.);
#688=ADVANCED_FACE('',(#64),#33,.T.);
#689=ADVANCED_FACE('',(#65),#661,.F.);
#690=ADVANCED_FACE('',(#66),#34,.T.);
#691=ADVANCED_FACE('',(#67),#35,.T.);
#692=ADVANCED_FACE('',(#68),#36,.T.);
#693=ADVANCED_FACE('',(#69),#37,.F.);
#694=ADVANCED_FACE('',(#70),#662,.T.);
#695=ADVANCED_FACE('',(#71),#38,.F.);
#696=ADVANCED_FACE('',(#72),#663,.T.);
#697=ADVANCED_FACE('',(#73),#664,.T.);
#698=ADVANCED_FACE('',(#74,#19),#39,.T.);
#699=ADVANCED_FACE('',(#75),#665,.T.);
#700=ADVANCED_FACE('',(#76),#40,.F.);
#701=ADVANCED_FACE('',(#77),#41,.T.);
#702=ADVANCED_FACE('',(#78),#666,.T.);
#703=ADVANCED_FACE('',(#79),#42,.F.);
#704=ADVANCED_FACE('',(#80),#667,.T.);
#705=ADVANCED_FACE('',(#81),#43,.F.);
#706=CLOSED_SHELL('',(#668,#669,#670,#671,#672,#673,#674,#675,#676,#677,
#678,#679,#680,#681,#682,#683,#684,#685,#686,#687,#688,#689,#690,#691,#692,
#693,#694,#695,#696,#697,#698,#699,#700,#701,#702,#703,#704,#705));
#707=DERIVED_UNIT_ELEMENT(#709,1.);
#708=DERIVED_UNIT_ELEMENT(#1200,-3.);
#709=(
MASS_UNIT()
NAMED_UNIT(*)
SI_UNIT(.KILO.,.GRAM.)
);
#710=DERIVED_UNIT((#707,#708));
#711=MEASURE_REPRESENTATION_ITEM('density measure',
POSITIVE_RATIO_MEASURE(7850.),#710);
#712=PROPERTY_DEFINITION_REPRESENTATION(#717,#714);
#713=PROPERTY_DEFINITION_REPRESENTATION(#718,#715);
#714=REPRESENTATION('material name',(#716),#1197);
#715=REPRESENTATION('density',(#711),#1197);
#716=DESCRIPTIVE_REPRESENTATION_ITEM('Steel','Steel');
#717=PROPERTY_DEFINITION('material property','material name',#1207);
#718=PROPERTY_DEFINITION('material property','density of part',#1207);
#719=AXIS2_PLACEMENT_3D('',#991,#786,#787);
#720=AXIS2_PLACEMENT_3D('',#992,#788,#789);
#721=AXIS2_PLACEMENT_3D('',#997,#791,#792);
#722=AXIS2_PLACEMENT_3D('',#1000,#794,#795);
#723=AXIS2_PLACEMENT_3D('',#1001,#796,#797);
#724=AXIS2_PLACEMENT_3D('',#1002,#798,#799);
#725=AXIS2_PLACEMENT_3D('',#1004,#800,#801);
#726=AXIS2_PLACEMENT_3D('',#1005,#802,#803);
#727=AXIS2_PLACEMENT_3D('',#1006,#804,#805);
#728=AXIS2_PLACEMENT_3D('',#1007,#806,#807);
#729=AXIS2_PLACEMENT_3D('',#1009,#808,#809);
#730=AXIS2_PLACEMENT_3D('',#1012,#811,#812);
#731=AXIS2_PLACEMENT_3D('',#1013,#813,#814);
#732=AXIS2_PLACEMENT_3D('',#1014,#815,#816);
#733=AXIS2_PLACEMENT_3D('',#1016,#817,#818);
#734=AXIS2_PLACEMENT_3D('',#1018,#820,#821);
#735=AXIS2_PLACEMENT_3D('',#1019,#822,#823);
#736=AXIS2_PLACEMENT_3D('',#1022,#824,#825);
#737=AXIS2_PLACEMENT_3D('',#1026,#827,#828);
#738=AXIS2_PLACEMENT_3D('',#1034,#832,#833);
#739=AXIS2_PLACEMENT_3D('',#1040,#837,#838);
#740=AXIS2_PLACEMENT_3D('',#1046,#842,#843);
#741=AXIS2_PLACEMENT_3D('',#1050,#846,#847);
#742=AXIS2_PLACEMENT_3D('',#1052,#848,#849);
#743=AXIS2_PLACEMENT_3D('',#1054,#851,#852);
#744=AXIS2_PLACEMENT_3D('',#1058,#855,#856);
#745=AXIS2_PLACEMENT_3D('',#1062,#859,#860);
#746=AXIS2_PLACEMENT_3D('',#1065,#861,#862);
#747=AXIS2_PLACEMENT_3D('',#1070,#865,#866);
#748=AXIS2_PLACEMENT_3D('',#1072,#868,#869);
#749=AXIS2_PLACEMENT_3D('',#1092,#880,#881);
#750=AXIS2_PLACEMENT_3D('',#1095,#883,#884);
#751=AXIS2_PLACEMENT_3D('',#1096,#885,#886);
#752=AXIS2_PLACEMENT_3D('',#1100,#889,#890);
#753=AXIS2_PLACEMENT_3D('',#1103,#892,#893);
#754=AXIS2_PLACEMENT_3D('',#1104,#894,#895);
#755=AXIS2_PLACEMENT_3D('',#1122,#905,#906);
#756=AXIS2_PLACEMENT_3D('',#1128,#910,#911);
#757=AXIS2_PLACEMENT_3D('',#1134,#915,#916);
#758=AXIS2_PLACEMENT_3D('',#1136,#917,#918);
#759=AXIS2_PLACEMENT_3D('',#1138,#919,#920);
#760=AXIS2_PLACEMENT_3D('',#1140,#922,#923);
#761=AXIS2_PLACEMENT_3D('',#1146,#927,#928);
#762=AXIS2_PLACEMENT_3D('',#1149,#931,#932);
#763=AXIS2_PLACEMENT_3D('',#1151,#933,#934);
#764=AXIS2_PLACEMENT_3D('',#1154,#936,#937);
#765=AXIS2_PLACEMENT_3D('',#1155,#938,#939);
#766=AXIS2_PLACEMENT_3D('',#1157,#940,#941);
#767=AXIS2_PLACEMENT_3D('',#1160,#943,#944);
#768=AXIS2_PLACEMENT_3D('',#1161,#945,#946);
#769=AXIS2_PLACEMENT_3D('',#1164,#948,#949);
#770=AXIS2_PLACEMENT_3D('',#1165,#950,#951);
#771=AXIS2_PLACEMENT_3D('',#1169,#954,#955);
#772=AXIS2_PLACEMENT_3D('',#1170,#956,#957);
#773=AXIS2_PLACEMENT_3D('',#1171,#958,#959);
#774=AXIS2_PLACEMENT_3D('',#1174,#961,#962);
#775=AXIS2_PLACEMENT_3D('',#1175,#963,#964);
#776=AXIS2_PLACEMENT_3D('',#1178,#966,#967);
#777=AXIS2_PLACEMENT_3D('',#1180,#969,#970);
#778=AXIS2_PLACEMENT_3D('',#1182,#971,#972);
#779=AXIS2_PLACEMENT_3D('',#1184,#974,#975);
#780=AXIS2_PLACEMENT_3D('',#1188,#978,#979);
#781=AXIS2_PLACEMENT_3D('',#1189,#980,#981);
#782=AXIS2_PLACEMENT_3D('',#1190,#982,#983);
#783=AXIS2_PLACEMENT_3D('',#1191,#984,#985);
#784=AXIS2_PLACEMENT_3D('',#1192,#986,#987);
#785=AXIS2_PLACEMENT_3D('',#1194,#989,#990);
#786=DIRECTION('axis',(0.,0.,1.));
#787=DIRECTION('refdir',(1.,0.,0.));
#788=DIRECTION('center_axis',(0.,0.,-1.));
#789=DIRECTION('ref_axis',(0.,1.,0.));
#790=DIRECTION('',(0.,0.,1.));
#791=DIRECTION('center_axis',(0.,1.22464679914735E-16,-1.));
#792=DIRECTION('ref_axis',(0.,1.,1.22464679914735E-16));
#793=DIRECTION('',(0.,0.,-1.));
#794=DIRECTION('center_axis',(0.,0.,1.));
#795=DIRECTION('ref_axis',(0.,1.,0.));
#796=DIRECTION('center_axis',(0.,0.,1.));
#797=DIRECTION('ref_axis',(1.,0.,0.));
#798=DIRECTION('center_axis',(0.,0.,1.));
#799=DIRECTION('ref_axis',(1.,0.,0.));
#800=DIRECTION('center_axis',(0.,0.,-1.));
#801=DIRECTION('ref_axis',(1.,0.,0.));
#802=DIRECTION('center_axis',(0.,0.,1.));
#803=DIRECTION('ref_axis',(6.12323399573676E-17,-1.,0.));
#804=DIRECTION('center_axis',(0.,1.22464679914735E-16,-1.));
#805=DIRECTION('ref_axis',(1.,0.,0.));
#806=DIRECTION('center_axis',(0.,0.,-1.));
#807=DIRECTION('ref_axis',(0.,1.,0.));
#808=DIRECTION('center_axis',(0.,0.,-1.));
#809=DIRECTION('ref_axis',(0.,1.,0.));
#810=DIRECTION('',(0.,0.,-1.));
#811=DIRECTION('center_axis',(0.,0.,-1.));
#812=DIRECTION('ref_axis',(0.,1.,0.));
#813=DIRECTION('center_axis',(0.,0.,-1.));
#814=DIRECTION('ref_axis',(0.,1.,0.));
#815=DIRECTION('center_axis',(0.,0.,1.));
#816=DIRECTION('ref_axis',(1.,0.,0.));
#817=DIRECTION('center_axis',(0.,0.,1.));
#818=DIRECTION('ref_axis',(1.,0.,0.));
#819=DIRECTION('',(0.,0.,-1.));
#820=DIRECTION('center_axis',(0.,0.,1.));
#821=DIRECTION('ref_axis',(1.,0.,0.));
#822=DIRECTION('center_axis',(0.,-1.22464679914735E-16,1.));
#823=DIRECTION('ref_axis',(-1.,0.,0.));
#824=DIRECTION('center_axis',(0.,-1.22464679914735E-16,1.));
#825=DIRECTION('ref_axis',(-0.707106781186548,0.707106781186548,8.65956056235491E-17));
#826=DIRECTION('',(-1.,0.,0.));
#827=DIRECTION('center_axis',(0.,-1.22464679914735E-16,1.));
#828=DIRECTION('ref_axis',(0.707106781186548,0.707106781186548,8.65956056235491E-17));
#829=DIRECTION('',(0.,-1.,-1.22464679914735E-16));
#830=DIRECTION('',(1.,0.,0.));
#831=DIRECTION('',(0.,1.,1.22464679914735E-16));
#832=DIRECTION('center_axis',(0.,-1.22464679914735E-16,1.));
#833=DIRECTION('ref_axis',(-1.,0.,0.));
#834=DIRECTION('',(0.,-1.,-1.22464679914735E-16));
#835=DIRECTION('',(1.,0.,0.));
#836=DIRECTION('',(0.,1.,1.22464679914735E-16));
#837=DIRECTION('center_axis',(0.,1.,0.));
#838=DIRECTION('ref_axis',(1.,0.,0.));
#839=DIRECTION('',(0.,0.,-1.));
#840=DIRECTION('',(1.,0.,0.));
#841=DIRECTION('',(0.,0.,-1.));
#842=DIRECTION('center_axis',(-1.,0.,0.));
#843=DIRECTION('ref_axis',(0.,1.,1.22464679914735E-16));
#844=DIRECTION('',(0.,1.,1.22464679914735E-16));
#845=DIRECTION('',(0.,0.,-1.));
#846=DIRECTION('center_axis',(0.,0.,-1.));
#847=DIRECTION('ref_axis',(2.12918074466393E-7,-0.999999999999977,0.));
#848=DIRECTION('center_axis',(0.,-1.22464679914735E-16,1.));
#849=DIRECTION('ref_axis',(-1.,0.,0.));
#850=DIRECTION('',(0.,0.,-1.));
#851=DIRECTION('center_axis',(1.,0.,0.));
#852=DIRECTION('ref_axis',(0.,-1.,-1.22464679914735E-16));
#853=DIRECTION('',(0.,-1.,-1.22464679914735E-16));
#854=DIRECTION('',(0.,0.,-1.));
#855=DIRECTION('center_axis',(0.,1.,0.));
#856=DIRECTION('ref_axis',(1.,0.,0.));
#857=DIRECTION('',(1.,0.,0.));
#858=DIRECTION('',(0.,0.,-1.));
#859=DIRECTION('center_axis',(0.,-1.22464679914735E-16,1.));
#860=DIRECTION('ref_axis',(-1.,0.,0.));
#861=DIRECTION('center_axis',(0.,1.22464679914735E-16,-1.));
#862=DIRECTION('ref_axis',(-0.707106781186548,0.707106781186548,8.65956056235491E-17));
#863=DIRECTION('',(0.,1.,1.22464679914735E-16));
#864=DIRECTION('',(0.,-1.,-1.22464679914735E-16));
#865=DIRECTION('center_axis',(0.,1.22464679914735E-16,-1.));
#866=DIRECTION('ref_axis',(0.707106781186548,0.707106781186548,8.65956056235491E-17));
#867=DIRECTION('',(1.,0.,0.));
#868=DIRECTION('center_axis',(1.,0.,0.));
#869=DIRECTION('ref_axis',(0.,1.22464679914735E-16,-1.));
#870=DIRECTION('',(0.,-1.22464679914735E-16,1.));
#871=DIRECTION('',(0.,1.,1.22464679914735E-16));
#872=DIRECTION('',(0.,1.22464679914735E-16,-1.));
#873=DIRECTION('',(0.,1.,1.22464679914735E-16));
#874=DIRECTION('',(0.,0.,-1.));
#875=DIRECTION('',(0.,1.,1.22464679914735E-16));
#876=DIRECTION('',(0.,1.22464679914735E-16,-1.));
#877=DIRECTION('',(0.,-1.,-1.22464679914735E-16));
#878=DIRECTION('',(0.,-0.707106781186547,0.707106781186547));
#879=DIRECTION('',(0.,-1.22464679914735E-16,1.));
#880=DIRECTION('center_axis',(0.,1.22464679914735E-16,-1.));
#881=DIRECTION('ref_axis',(-0.707106781186548,0.707106781186548,8.65956056235491E-17));
#882=DIRECTION('',(0.,1.22464679914735E-16,-1.));
#883=DIRECTION('center_axis',(0.,-1.22464679914735E-16,1.));
#884=DIRECTION('ref_axis',(-0.707106781186548,0.707106781186548,8.65956056235491E-17));
#885=DIRECTION('center_axis',(0.,-1.,-1.22464679914735E-16));
#886=DIRECTION('ref_axis',(0.,-1.22464679914735E-16,1.));
#887=DIRECTION('',(0.,-1.22464679914735E-16,1.));
#888=DIRECTION('',(1.,0.,0.));
#889=DIRECTION('center_axis',(0.,1.22464679914735E-16,-1.));
#890=DIRECTION('ref_axis',(0.707106781186548,0.707106781186548,8.65956056235491E-17));
#891=DIRECTION('',(0.,1.22464679914735E-16,-1.));
#892=DIRECTION('center_axis',(0.,-1.22464679914735E-16,1.));
#893=DIRECTION('ref_axis',(0.707106781186548,0.707106781186548,8.65956056235491E-17));
#894=DIRECTION('center_axis',(-1.,0.,0.));
#895=DIRECTION('ref_axis',(0.,-1.22464679914735E-16,1.));
#896=DIRECTION('',(0.,1.22464679914735E-16,-1.));
#897=DIRECTION('',(0.,0.707106781186547,-0.707106781186547));
#898=DIRECTION('',(0.,1.,1.22464679914735E-16));
#899=DIRECTION('',(0.,-1.22464679914735E-16,1.));
#900=DIRECTION('',(0.,-1.,-1.22464679914735E-16));
#901=DIRECTION('',(0.,0.,-1.));
#902=DIRECTION('',(0.,-1.,-1.22464679914735E-16));
#903=DIRECTION('',(0.,-1.22464679914735E-16,1.));
#904=DIRECTION('',(0.,-1.,-1.22464679914735E-16));
#905=DIRECTION('center_axis',(0.,-1.,0.));
#906=DIRECTION('ref_axis',(-1.,0.,0.));
#907=DIRECTION('',(-1.,0.,0.));
#908=DIRECTION('',(-1.,0.,0.));
#909=DIRECTION('',(0.,0.,-1.));
#910=DIRECTION('center_axis',(1.,0.,0.));
#911=DIRECTION('ref_axis',(0.,-1.,-1.22464679914735E-16));
#912=DIRECTION('',(0.,-1.,-1.22464679914735E-16));
#913=DIRECTION('',(0.,-1.,-1.22464679914735E-16));
#914=DIRECTION('',(0.,0.,-1.));
#915=DIRECTION('center_axis',(0.,0.,-1.));
#916=DIRECTION('ref_axis',(2.12918073777374E-7,0.999999999999977,0.));
#917=DIRECTION('center_axis',(0.,-1.22464679914735E-16,1.));
#918=DIRECTION('ref_axis',(-1.,0.,0.));
#919=DIRECTION('center_axis',(0.,-1.22464679914735E-16,1.));
#920=DIRECTION('ref_axis',(-1.,0.,0.));
#921=DIRECTION('',(0.,0.,-1.));
#922=DIRECTION('center_axis',(-1.,0.,0.));
#923=DIRECTION('ref_axis',(0.,1.,1.22464679914735E-16));
#924=DIRECTION('',(0.,1.,1.22464679914735E-16));
#925=DIRECTION('',(0.,1.,1.22464679914735E-16));
#926=DIRECTION('',(0.,0.,-1.));
#927=DIRECTION('center_axis',(0.,-1.,0.));
#928=DIRECTION('ref_axis',(-1.,0.,0.));
#929=DIRECTION('',(-1.,0.,0.));
#930=DIRECTION('',(-1.,0.,0.));
#931=DIRECTION('center_axis',(0.,-1.22464679914735E-16,1.));
#932=DIRECTION('ref_axis',(-1.,0.,0.));
#933=DIRECTION('center_axis',(0.,-1.22464679914735E-16,1.));
#934=DIRECTION('ref_axis',(0.707106781186548,-0.707106781186548,-8.65956056235491E-17));
#935=DIRECTION('',(1.,0.,0.));
#936=DIRECTION('center_axis',(0.,-1.22464679914735E-16,1.));
#937=DIRECTION('ref_axis',(-0.707106781186548,-0.707106781186548,-8.65956056235491E-17));
#938=DIRECTION('center_axis',(0.,-1.22464679914735E-16,1.));
#939=DIRECTION('ref_axis',(-1.,0.,0.));
#940=DIRECTION('center_axis',(0.,1.22464679914735E-16,-1.));
#941=DIRECTION('ref_axis',(-0.707106781186548,-0.707106781186548,-8.65956056235491E-17));
#942=DIRECTION('',(-1.,0.,0.));
#943=DIRECTION('center_axis',(0.,1.22464679914735E-16,-1.));
#944=DIRECTION('ref_axis',(0.707106781186548,-0.707106781186548,-8.65956056235491E-17));
#945=DIRECTION('center_axis',(0.,1.22464679914735E-16,-1.));
#946=DIRECTION('ref_axis',(0.707106781186548,-0.707106781186548,-8.65956056235491E-17));
#947=DIRECTION('',(0.,1.22464679914735E-16,-1.));
#948=DIRECTION('center_axis',(0.,-1.22464679914735E-16,1.));
#949=DIRECTION('ref_axis',(0.707106781186548,-0.707106781186548,-8.65956056235491E-17));
#950=DIRECTION('center_axis',(0.,1.,1.22464679914735E-16));
#951=DIRECTION('ref_axis',(0.,1.22464679914735E-16,-1.));
#952=DIRECTION('',(0.,-1.22464679914735E-16,1.));
#953=DIRECTION('',(-1.,0.,0.));
#954=DIRECTION('center_axis',(0.,1.22464679914735E-16,-1.));
#955=DIRECTION('ref_axis',(-0.707106781186548,-0.707106781186548,-8.65956056235491E-17));
#956=DIRECTION('center_axis',(0.,-1.22464679914735E-16,1.));
#957=DIRECTION('ref_axis',(-0.707106781186548,-0.707106781186548,-8.65956056235491E-17));
#958=DIRECTION('center_axis',(0.,1.22464679914735E-16,-1.));
#959=DIRECTION('ref_axis',(-0.707106781186548,-0.707106781186548,-8.65956056235491E-17));
#960=DIRECTION('',(0.,-1.22464679914735E-16,1.));
#961=DIRECTION('center_axis',(0.,1.22464679914735E-16,-1.));
#962=DIRECTION('ref_axis',(-0.707106781186548,-0.707106781186548,-8.65956056235491E-17));
#963=DIRECTION('center_axis',(0.,-1.22464679914735E-16,1.));
#964=DIRECTION('ref_axis',(0.,1.,1.22464679914735E-16));
#965=DIRECTION('',(1.,0.,0.));
#966=DIRECTION('center_axis',(0.,1.22464679914735E-16,-1.));
#967=DIRECTION('ref_axis',(0.707106781186548,-0.707106781186548,-8.65956056235491E-17));
#968=DIRECTION('',(1.,0.,0.));
#969=DIRECTION('center_axis',(0.,1.22464679914735E-16,-1.));
#970=DIRECTION('ref_axis',(-0.707106781186548,0.707106781186548,8.65956056235491E-17));
#971=DIRECTION('center_axis',(0.,-0.707106781186548,-0.707106781186548));
#972=DIRECTION('ref_axis',(0.,0.707106781186547,-0.707106781186547));
#973=DIRECTION('',(0.,1.22464679914735E-16,-1.));
#974=DIRECTION('center_axis',(0.,-1.,-1.22464679914735E-16));
#975=DIRECTION('ref_axis',(0.,-1.22464679914735E-16,1.));
#976=DIRECTION('',(-1.,0.,0.));
#977=DIRECTION('',(0.,-1.22464679914735E-16,1.));
#978=DIRECTION('center_axis',(0.,0.707106781186548,0.707106781186548));
#979=DIRECTION('ref_axis',(1.,0.,0.));
#980=DIRECTION('center_axis',(0.,-0.707106781186548,-0.707106781186548));
#981=DIRECTION('ref_axis',(0.,0.707106781186547,-0.707106781186547));
#982=DIRECTION('center_axis',(0.,1.22464679914735E-16,-1.));
#983=DIRECTION('ref_axis',(0.707106781186548,0.707106781186548,8.65956056235491E-17));
#984=DIRECTION('center_axis',(0.,-1.22464679914735E-16,1.));
#985=DIRECTION('ref_axis',(0.,1.,1.22464679914735E-16));
#986=DIRECTION('center_axis',(0.,1.22464679914735E-16,-1.));
#987=DIRECTION('ref_axis',(0.707106781186548,-0.707106781186548,-8.65956056235491E-17));
#988=DIRECTION('',(0.,1.22464679914735E-16,-1.));
#989=DIRECTION('center_axis',(0.,1.,1.22464679914735E-16));
#990=DIRECTION('ref_axis',(0.,1.22464679914735E-16,-1.));
#991=CARTESIAN_POINT('',(0.,0.,0.));
#992=CARTESIAN_POINT('Origin',(56.000000834465,62.0000009387732,27.1));
#993=CARTESIAN_POINT('',(58.83858911478,61.0292195139104,25.5));
#994=CARTESIAN_POINT('',(58.83858911478,61.0292195139104,29.6));
#995=CARTESIAN_POINT('',(58.83858911478,61.0292195139104,27.1));
#996=CARTESIAN_POINT('',(53.1614125541501,61.0292195139104,25.5));
#997=CARTESIAN_POINT('Origin',(56.000000834465,62.0000009387732,25.5));
#998=CARTESIAN_POINT('',(53.1614125541501,61.0292195139104,29.6));
#999=CARTESIAN_POINT('',(53.1614125541501,61.0292195139104,27.1));
#1000=CARTESIAN_POINT('Origin',(56.000000834465,62.0000009387732,29.6));
#1001=CARTESIAN_POINT('Origin',(56.000000834465,56.0000007301569,29.6));
#1002=CARTESIAN_POINT('Origin',(56.000000834465,56.0000007301569,29.6));
#1003=CARTESIAN_POINT('',(53.700000834465,56.0000007301569,29.6));
#1004=CARTESIAN_POINT('Origin',(56.000000834465,56.0000007301569,29.6));
#1005=CARTESIAN_POINT('Origin',(56.000000834465,56.0000007301569,27.55));
#1006=CARTESIAN_POINT('Origin',(56.000000834465,56.0000007301569,25.5));
#1007=CARTESIAN_POINT('Origin',(56.000000834465,56.0000007301569,31.3));
#1008=CARTESIAN_POINT('',(56.000000834465,55.0000007301569,32.8));
#1009=CARTESIAN_POINT('Origin',(56.000000834465,56.0000007301569,32.8));
#1010=CARTESIAN_POINT('',(56.000000834465,55.0000007301569,29.8));
#1011=CARTESIAN_POINT('',(56.000000834465,55.0000007301569,31.3));
#1012=CARTESIAN_POINT('Origin',(56.000000834465,56.0000007301569,29.8));
#1013=CARTESIAN_POINT('Origin',(56.000000834465,56.0000007301569,29.8));
#1014=CARTESIAN_POINT('Origin',(56.000000834465,56.0000007301569,31.2));
#1015=CARTESIAN_POINT('',(53.700000834465,56.0000007301569,32.8));
#1016=CARTESIAN_POINT('Origin',(56.000000834465,56.0000007301569,32.8));
#1017=CARTESIAN_POINT('',(53.700000834465,56.0000007301569,31.2));
#1018=CARTESIAN_POINT('Origin',(56.000000834465,56.0000007301569,32.8));
#1019=CARTESIAN_POINT('Origin',(56.0000004842877,74.8750005587935,20.9));
#1020=CARTESIAN_POINT('',(50.5,73.,20.9));
#1021=CARTESIAN_POINT('',(50.0000003228585,72.5,20.9));
#1022=CARTESIAN_POINT('Origin',(50.5,72.5,20.9));
#1023=CARTESIAN_POINT('',(61.5,73.,20.9));
#1024=CARTESIAN_POINT('',(56.0000002421439,73.,20.9));
#1025=CARTESIAN_POINT('',(62.0000003228585,72.5,20.9));
#1026=CARTESIAN_POINT('Origin',(61.5,72.5,20.9));
#1027=CARTESIAN_POINT('',(62.0000009681333,77.7500011175871,20.9));
#1028=CARTESIAN_POINT('',(62.0000009685755,77.7500011175871,20.9));
#1029=CARTESIAN_POINT('',(56.5000008419156,77.7500011175871,20.9));
#1030=CARTESIAN_POINT('',(50.0000009685755,77.7500011175871,20.9));
#1031=CARTESIAN_POINT('',(56.5000008419156,76.3797971173573,20.9));
#1032=CARTESIAN_POINT('',(56.5000008419156,41.0000006109476,20.9));
#1033=CARTESIAN_POINT('',(55.5000008270144,76.3797969044392,20.9));
#1034=CARTESIAN_POINT('Origin',(56.0000010430813,75.4000011175871,20.9));
#1035=CARTESIAN_POINT('',(55.5000008270144,77.7500011175871,20.9));
#1036=CARTESIAN_POINT('',(55.5000008270144,79.0000011771917,20.9));
#1037=CARTESIAN_POINT('',(50.0000009681333,77.7500011175871,20.9));
#1038=CARTESIAN_POINT('',(50.0000009685755,77.7500011175871,20.9));
#1039=CARTESIAN_POINT('',(50.0000009685755,45.2500011175871,20.9));
#1040=CARTESIAN_POINT('Origin',(56.5000008419156,77.7500011175871,20.9));
#1041=CARTESIAN_POINT('',(62.0000009681333,77.7500011175871,18.6));
#1042=CARTESIAN_POINT('',(62.0000009685755,77.7500011175871,20.9));
#1043=CARTESIAN_POINT('',(56.5000008419156,77.7500011175871,18.6));
#1044=CARTESIAN_POINT('',(50.0000009685755,77.7500011175871,18.6));
#1045=CARTESIAN_POINT('',(56.5000008419156,77.7500011175871,20.9));
#1046=CARTESIAN_POINT('Origin',(56.5000008419156,76.3797971173573,20.9));
#1047=CARTESIAN_POINT('',(56.5000008419156,76.3797971173573,18.6));
#1048=CARTESIAN_POINT('',(56.5000008419156,41.0000006109476,18.6));
#1049=CARTESIAN_POINT('',(56.5000008419156,76.3797971173573,20.9));
#1050=CARTESIAN_POINT('Origin',(56.0000010430813,75.4000011175871,20.9));
#1051=CARTESIAN_POINT('',(55.5000008270144,76.3797969044392,18.6));
#1052=CARTESIAN_POINT('Origin',(56.0000010430813,75.4000011175871,18.6));
#1053=CARTESIAN_POINT('',(55.5000008270144,76.3797969044392,20.9));
#1054=CARTESIAN_POINT('Origin',(55.5000008270144,77.7500011175871,20.9));
#1055=CARTESIAN_POINT('',(55.5000008270144,77.7500011175871,18.6));
#1056=CARTESIAN_POINT('',(55.5000008270144,79.0000011771917,18.6));
#1057=CARTESIAN_POINT('',(55.5000008270144,77.7500011175871,20.9));
#1058=CARTESIAN_POINT('Origin',(50.0000009685755,77.7500011175871,20.9));
#1059=CARTESIAN_POINT('',(50.0000009681333,77.7500011175871,18.6));
#1060=CARTESIAN_POINT('',(50.0000009685755,77.7500011175871,18.6));
#1061=CARTESIAN_POINT('',(50.0000009685755,77.7500011175871,20.9));
#1062=CARTESIAN_POINT('Origin',(56.0000004842877,74.8750005587935,18.6));
#1063=CARTESIAN_POINT('',(50.0000003228585,72.5,18.6));
#1064=CARTESIAN_POINT('',(50.5,73.,18.6));
#1065=CARTESIAN_POINT('Origin',(50.5,72.5,18.6));
#1066=CARTESIAN_POINT('',(50.0000009685755,45.2500011175871,18.6));
#1067=CARTESIAN_POINT('',(62.0000003228585,72.5,18.6));
#1068=CARTESIAN_POINT('',(62.0000009685755,77.7500011175871,18.6));
#1069=CARTESIAN_POINT('',(61.5,73.,18.6));
#1070=CARTESIAN_POINT('Origin',(61.5,72.5,18.6));
#1071=CARTESIAN_POINT('',(56.0000002421439,73.,18.6));
#1072=CARTESIAN_POINT('Origin',(50.,61.5,13.9));
#1073=CARTESIAN_POINT('',(50.,72.5,2.30000000000002));
#1074=CARTESIAN_POINT('',(50.,72.5,13.9));
#1075=CARTESIAN_POINT('',(50.,50.5,2.30000000000001));
#1076=CARTESIAN_POINT('',(50.,61.5,2.30000000000002));
#1077=CARTESIAN_POINT('',(50.0000003228585,50.5,18.6));
#1078=CARTESIAN_POINT('',(50.,50.5,13.9));
#1079=CARTESIAN_POINT('',(50.0000009681333,45.2500011175871,18.6));
#1080=CARTESIAN_POINT('',(50.0000009685755,45.2500011175871,18.6));
#1081=CARTESIAN_POINT('',(50.0000009681333,45.2500011175871,20.9));
#1082=CARTESIAN_POINT('',(50.0000009685755,45.2500011175871,20.9));
#1083=CARTESIAN_POINT('',(50.0000003228585,50.5,20.9));
#1084=CARTESIAN_POINT('',(50.0000009685755,45.2500011175871,20.9));
#1085=CARTESIAN_POINT('',(50.,50.5,25.5));
#1086=CARTESIAN_POINT('',(50.,50.5,13.9));
#1087=CARTESIAN_POINT('',(50.,72.,25.5));
#1088=CARTESIAN_POINT('',(50.,61.5,25.5));
#1089=CARTESIAN_POINT('',(50.,72.5,25.));
#1090=CARTESIAN_POINT('',(50.,72.525,24.975));
#1091=CARTESIAN_POINT('',(50.,72.5,13.9));
#1092=CARTESIAN_POINT('Origin',(50.5,72.5,13.9));
#1093=CARTESIAN_POINT('',(50.5,73.,2.30000000000002));
#1094=CARTESIAN_POINT('',(50.5,73.,13.9));
#1095=CARTESIAN_POINT('Origin',(50.5,72.5,2.30000000000002));
#1096=CARTESIAN_POINT('Origin',(56.,73.,13.9));
#1097=CARTESIAN_POINT('',(61.5,73.,2.30000000000002));
#1098=CARTESIAN_POINT('',(61.5,73.,13.9));
#1099=CARTESIAN_POINT('',(56.,73.,2.30000000000002));
#1100=CARTESIAN_POINT('Origin',(61.5,72.5,13.9));
#1101=CARTESIAN_POINT('',(62.,72.5,2.30000000000002));
#1102=CARTESIAN_POINT('',(62.,72.5,13.9));
#1103=CARTESIAN_POINT('Origin',(61.5,72.5,2.30000000000002));
#1104=CARTESIAN_POINT('Origin',(62.,61.5,13.9));
#1105=CARTESIAN_POINT('',(62.,72.5,25.));
#1106=CARTESIAN_POINT('',(62.,72.5,13.9));
#1107=CARTESIAN_POINT('',(62.,72.,25.5));
#1108=CARTESIAN_POINT('',(62.,72.525,24.975));
#1109=CARTESIAN_POINT('',(62.,50.5,25.5));
#1110=CARTESIAN_POINT('',(62.,61.5,25.5));
#1111=CARTESIAN_POINT('',(62.0000003228585,50.5,20.9));
#1112=CARTESIAN_POINT('',(62.,50.5,13.9));
#1113=CARTESIAN_POINT('',(62.0000009681333,45.2500011175871,20.9));
#1114=CARTESIAN_POINT('',(62.0000009685755,77.7500011175871,20.9));
#1115=CARTESIAN_POINT('',(62.0000009681333,45.2500011175871,18.6));
#1116=CARTESIAN_POINT('',(62.0000009685755,45.2500011175871,20.9));
#1117=CARTESIAN_POINT('',(62.0000003228585,50.5,18.6));
#1118=CARTESIAN_POINT('',(62.0000009685755,77.7500011175871,18.6));
#1119=CARTESIAN_POINT('',(62.,50.5,2.30000000000001));
#1120=CARTESIAN_POINT('',(62.,50.5,13.9));
#1121=CARTESIAN_POINT('',(62.,61.5,2.30000000000002));
#1122=CARTESIAN_POINT('Origin',(55.5000008270144,45.2500011175871,20.9));
#1123=CARTESIAN_POINT('',(55.5000008270144,45.2500011175871,20.9));
#1124=CARTESIAN_POINT('',(62.0000009685755,45.2500011175871,20.9));
#1125=CARTESIAN_POINT('',(55.5000008270144,45.2500011175871,18.6));
#1126=CARTESIAN_POINT('',(62.0000009685755,45.2500011175871,18.6));
#1127=CARTESIAN_POINT('',(55.5000008270144,45.2500011175871,20.9));
#1128=CARTESIAN_POINT('Origin',(55.5000008270144,46.620205330735,20.9));
#1129=CARTESIAN_POINT('',(55.5000008270144,46.620205330735,20.9));
#1130=CARTESIAN_POINT('',(55.5000008270144,79.0000011771917,20.9));
#1131=CARTESIAN_POINT('',(55.5000008270144,46.620205330735,18.6));
#1132=CARTESIAN_POINT('',(55.5000008270144,79.0000011771917,18.6));
#1133=CARTESIAN_POINT('',(55.5000008270144,46.620205330735,20.9));
#1134=CARTESIAN_POINT('Origin',(56.0000010430813,47.6000011175871,20.9));
#1135=CARTESIAN_POINT('',(56.5000008419156,46.6202051178169,20.9));
#1136=CARTESIAN_POINT('Origin',(56.0000010430813,47.6000011175871,20.9));
#1137=CARTESIAN_POINT('',(56.5000008419156,46.6202051178169,18.6));
#1138=CARTESIAN_POINT('Origin',(56.0000010430813,47.6000011175871,18.6));
#1139=CARTESIAN_POINT('',(56.5000008419156,46.6202051178169,20.9));
#1140=CARTESIAN_POINT('Origin',(56.5000008419156,45.2500011175871,20.9));
#1141=CARTESIAN_POINT('',(56.5000008419156,45.2500011175871,20.9));
#1142=CARTESIAN_POINT('',(56.5000008419156,41.0000006109476,20.9));
#1143=CARTESIAN_POINT('',(56.5000008419156,45.2500011175871,18.6));
#1144=CARTESIAN_POINT('',(56.5000008419156,41.0000006109476,18.6));
#1145=CARTESIAN_POINT('',(56.5000008419156,45.2500011175871,20.9));
#1146=CARTESIAN_POINT('Origin',(62.0000009685755,45.2500011175871,20.9));
#1147=CARTESIAN_POINT('',(62.0000009685755,45.2500011175871,20.9));
#1148=CARTESIAN_POINT('',(62.0000009685755,45.2500011175871,18.6));
#1149=CARTESIAN_POINT('Origin',(56.0000004842877,47.8750005587935,20.9));
#1150=CARTESIAN_POINT('',(61.5,50.,20.9));
#1151=CARTESIAN_POINT('Origin',(61.5,50.5,20.9));
#1152=CARTESIAN_POINT('',(50.5,50.,20.9));
#1153=CARTESIAN_POINT('',(56.0000002421439,50.,20.9));
#1154=CARTESIAN_POINT('Origin',(50.5,50.5,20.9));
#1155=CARTESIAN_POINT('Origin',(56.0000004842877,47.8750005587935,18.6));
#1156=CARTESIAN_POINT('',(50.5,50.,18.6));
#1157=CARTESIAN_POINT('Origin',(50.5,50.5,18.6));
#1158=CARTESIAN_POINT('',(61.5,50.,18.6));
#1159=CARTESIAN_POINT('',(56.0000002421439,50.,18.6));
#1160=CARTESIAN_POINT('Origin',(61.5,50.5,18.6));
#1161=CARTESIAN_POINT('Origin',(61.5,50.5,13.9));
#1162=CARTESIAN_POINT('',(61.5,50.,2.30000000000001));
#1163=CARTESIAN_POINT('',(61.5,50.,13.9));
#1164=CARTESIAN_POINT('Origin',(61.5,50.5,2.30000000000001));
#1165=CARTESIAN_POINT('Origin',(56.,50.,13.9));
#1166=CARTESIAN_POINT('',(50.5,50.,2.30000000000001));
#1167=CARTESIAN_POINT('',(50.5,50.,13.9));
#1168=CARTESIAN_POINT('',(56.,50.,2.30000000000001));
#1169=CARTESIAN_POINT('Origin',(50.5,50.5,13.9));
#1170=CARTESIAN_POINT('Origin',(50.5,50.5,2.30000000000001));
#1171=CARTESIAN_POINT('Origin',(50.5,50.5,13.9));
#1172=CARTESIAN_POINT('',(50.5,50.,25.5));
#1173=CARTESIAN_POINT('',(50.5,50.,13.9));
#1174=CARTESIAN_POINT('Origin',(50.5,50.5,25.5));
#1175=CARTESIAN_POINT('Origin',(56.,61.5,25.5));
#1176=CARTESIAN_POINT('',(61.5,50.,25.5));
#1177=CARTESIAN_POINT('',(56.,50.,25.5));
#1178=CARTESIAN_POINT('Origin',(61.5,50.5,25.5));
#1179=CARTESIAN_POINT('',(56.,72.,25.5));
#1180=CARTESIAN_POINT('Origin',(50.5,72.5,13.9));
#1181=CARTESIAN_POINT('',(50.5,73.,24.5));
#1182=CARTESIAN_POINT('Origin',(50.5,72.5,25.));
#1183=CARTESIAN_POINT('',(50.5,73.,13.9));
#1184=CARTESIAN_POINT('Origin',(56.,73.,13.9));
#1185=CARTESIAN_POINT('',(61.5,73.,24.5));
#1186=CARTESIAN_POINT('',(56.,73.,24.5));
#1187=CARTESIAN_POINT('',(61.5,73.,13.9));
#1188=CARTESIAN_POINT('Origin',(56.,72.5,25.));
#1189=CARTESIAN_POINT('Origin',(61.5,72.5,25.));
#1190=CARTESIAN_POINT('Origin',(61.5,72.5,13.9));
#1191=CARTESIAN_POINT('Origin',(56.,61.5,2.30000000000002));
#1192=CARTESIAN_POINT('Origin',(61.5,50.5,13.9));
#1193=CARTESIAN_POINT('',(61.5,50.,13.9));
#1194=CARTESIAN_POINT('Origin',(56.,50.,13.9));
#1195=UNCERTAINTY_MEASURE_WITH_UNIT(LENGTH_MEASURE(0.01),#1199,
'DISTANCE_ACCURACY_VALUE',
'Maximum model space distance between geometric entities at asserted c
onnectivities');
#1196=UNCERTAINTY_MEASURE_WITH_UNIT(LENGTH_MEASURE(0.01),#1199,
'DISTANCE_ACCURACY_VALUE',
'Maximum model space distance between geometric entities at asserted c
onnectivities');
#1197=(
GEOMETRIC_REPRESENTATION_CONTEXT(3)
GLOBAL_UNCERTAINTY_ASSIGNED_CONTEXT((#1195))
GLOBAL_UNIT_ASSIGNED_CONTEXT((#1199,#1201,#1202))
REPRESENTATION_CONTEXT('','3D')
);
#1198=(
GEOMETRIC_REPRESENTATION_CONTEXT(3)
GLOBAL_UNCERTAINTY_ASSIGNED_CONTEXT((#1196))
GLOBAL_UNIT_ASSIGNED_CONTEXT((#1199,#1201,#1202))
REPRESENTATION_CONTEXT('','3D')
);
#1199=(
LENGTH_UNIT()
NAMED_UNIT(*)
SI_UNIT(.MILLI.,.METRE.)
);
#1200=(
LENGTH_UNIT()
NAMED_UNIT(*)
SI_UNIT($,.METRE.)
);
#1201=(
NAMED_UNIT(*)
PLANE_ANGLE_UNIT()
SI_UNIT($,.RADIAN.)
);
#1202=(
NAMED_UNIT(*)
SI_UNIT($,.STERADIAN.)
SOLID_ANGLE_UNIT()
);
#1203=SHAPE_DEFINITION_REPRESENTATION(#1204,#1205);
#1204=PRODUCT_DEFINITION_SHAPE('',$,#1207);
#1205=SHAPE_REPRESENTATION('',(#719),#1197);
#1206=PRODUCT_DEFINITION_CONTEXT('part definition',#1211,'design');
#1207=PRODUCT_DEFINITION('DS-S006L servo','DS-S006L servo v1',#1208,#1206);
#1208=PRODUCT_DEFINITION_FORMATION('',$,#1213);
#1209=PRODUCT_RELATED_PRODUCT_CATEGORY('DS-S006L servo v1',
'DS-S006L servo v1',(#1213));
#1210=APPLICATION_PROTOCOL_DEFINITION('international standard',
'automotive_design',2009,#1211);
#1211=APPLICATION_CONTEXT(
'Core Data for Automotive Mechanical Design Process');
#1212=PRODUCT_CONTEXT('part definition',#1211,'mechanical');
#1213=PRODUCT('DS-S006L servo','DS-S006L servo v1',$,(#1212));
#1214=PRESENTATION_STYLE_ASSIGNMENT((#1216));
#1215=PRESENTATION_STYLE_ASSIGNMENT((#1217));
#1216=SURFACE_STYLE_USAGE(.BOTH.,#1218);
#1217=SURFACE_STYLE_USAGE(.BOTH.,#1219);
#1218=SURFACE_SIDE_STYLE('',(#1220));
#1219=SURFACE_SIDE_STYLE('',(#1221));
#1220=SURFACE_STYLE_FILL_AREA(#1222);
#1221=SURFACE_STYLE_FILL_AREA(#1223);
#1222=FILL_AREA_STYLE('Steel - Satin',(#1224));
#1223=FILL_AREA_STYLE('Opaque(160,160,160)',(#1225));
#1224=FILL_AREA_STYLE_COLOUR('Steel - Satin',#1226);
#1225=FILL_AREA_STYLE_COLOUR('Opaque(160,160,160)',#1227);
#1226=COLOUR_RGB('Steel - Satin',0.627450980392157,0.627450980392157,0.627450980392157);
#1227=COLOUR_RGB('Opaque(160,160,160)',0.627450980392157,0.627450980392157,
0.627450980392157);
ENDSEC;
END-ISO-10303-21;
