ISO-10303-21;
HEADER;
/* Generated by software containing ST-Developer
 * from STEP Tools, Inc. (www.steptools.com) 
 */

FILE_DESCRIPTION(
/* description */ (''),
/* implementation_level */ '2;1');

FILE_NAME(
/* name */ 'trolley_wheel v2.step',
/* time_stamp */ '2026-04-30T11:06:46+01:00',
/* author */ (''),
/* organization */ (''),
/* preprocessor_version */ 'ST-DEVELOPER v20.1',
/* originating_system */ 'Autodesk Translation Framework v14.24.0.0',
/* authorisation */ '');

FILE_SCHEMA (('AUTOMOTIVE_DESIGN { 1 0 10303 214 3 1 1 }'));
ENDSEC;

DATA;
#10=MECHANICAL_DESIGN_GEOMETRIC_PRESENTATION_REPRESENTATION('',(#13),#518);
#11=SHAPE_REPRESENTATION_RELATIONSHIP('SRR','None',#525,#12);
#12=ADVANCED_BREP_SHAPE_REPRESENTATION('',(#14),#517);
#13=STYLED_ITEM('',(#534),#14);
#14=MANIFOLD_SOLID_BREP('Body1',#306);
#15=CYLINDRICAL_SURFACE('',#333,18.5);
#16=CYLINDRICAL_SURFACE('',#336,2.5);
#17=CYLINDRICAL_SURFACE('',#338,2.5);
#18=CYLINDRICAL_SURFACE('',#340,2.5);
#19=CYLINDRICAL_SURFACE('',#342,2.5);
#20=FACE_BOUND('',#102,.T.);
#21=FACE_BOUND('',#103,.T.);
#22=FACE_BOUND('',#104,.T.);
#23=FACE_BOUND('',#105,.T.);
#24=FACE_BOUND('',#109,.T.);
#25=FACE_BOUND('',#120,.T.);
#26=FACE_BOUND('',#121,.T.);
#27=FACE_BOUND('',#122,.T.);
#28=FACE_BOUND('',#123,.T.);
#29=LINE('',#442,#56);
#30=LINE('',#444,#57);
#31=LINE('',#445,#58);
#32=LINE('',#448,#59);
#33=LINE('',#450,#60);
#34=LINE('',#452,#61);
#35=LINE('',#454,#62);
#36=LINE('',#456,#63);
#37=LINE('',#458,#64);
#38=LINE('',#459,#65);
#39=LINE('',#475,#66);
#40=LINE('',#476,#67);
#41=LINE('',#478,#68);
#42=LINE('',#479,#69);
#43=LINE('',#480,#70);
#44=LINE('',#483,#71);
#45=LINE('',#485,#72);
#46=LINE('',#486,#73);
#47=LINE('',#491,#74);
#48=LINE('',#495,#75);
#49=LINE('',#499,#76);
#50=LINE('',#503,#77);
#51=LINE('',#506,#78);
#52=LINE('',#507,#79);
#53=LINE('',#510,#80);
#54=LINE('',#511,#81);
#55=LINE('',#513,#82);
#56=VECTOR('',#358,10.);
#57=VECTOR('',#359,10.);
#58=VECTOR('',#360,10.);
#59=VECTOR('',#363,10.);
#60=VECTOR('',#364,10.);
#61=VECTOR('',#365,10.);
#62=VECTOR('',#366,10.);
#63=VECTOR('',#367,10.);
#64=VECTOR('',#368,10.);
#65=VECTOR('',#369,10.);
#66=VECTOR('',#386,10.);
#67=VECTOR('',#387,10.);
#68=VECTOR('',#390,18.5);
#69=VECTOR('',#391,10.);
#70=VECTOR('',#392,10.);
#71=VECTOR('',#395,10.);
#72=VECTOR('',#396,10.);
#73=VECTOR('',#397,10.);
#74=VECTOR('',#404,2.5);
#75=VECTOR('',#409,2.5);
#76=VECTOR('',#414,2.5);
#77=VECTOR('',#419,2.5);
#78=VECTOR('',#422,10.);
#79=VECTOR('',#423,10.);
#80=VECTOR('',#426,10.);
#81=VECTOR('',#427,10.);
#82=VECTOR('',#430,10.);
#83=FACE_OUTER_BOUND('',#99,.T.);
#84=FACE_OUTER_BOUND('',#100,.T.);
#85=FACE_OUTER_BOUND('',#101,.T.);
#86=FACE_OUTER_BOUND('',#106,.T.);
#87=FACE_OUTER_BOUND('',#107,.T.);
#88=FACE_OUTER_BOUND('',#108,.T.);
#89=FACE_OUTER_BOUND('',#110,.T.);
#90=FACE_OUTER_BOUND('',#111,.T.);
#91=FACE_OUTER_BOUND('',#112,.T.);
#92=FACE_OUTER_BOUND('',#113,.T.);
#93=FACE_OUTER_BOUND('',#114,.T.);
#94=FACE_OUTER_BOUND('',#115,.T.);
#95=FACE_OUTER_BOUND('',#116,.T.);
#96=FACE_OUTER_BOUND('',#117,.T.);
#97=FACE_OUTER_BOUND('',#118,.T.);
#98=FACE_OUTER_BOUND('',#119,.T.);
#99=EDGE_LOOP('',(#201));
#100=EDGE_LOOP('',(#202,#203,#204,#205));
#101=EDGE_LOOP('',(#206,#207,#208,#209,#210,#211,#212,#213));
#102=EDGE_LOOP('',(#214));
#103=EDGE_LOOP('',(#215));
#104=EDGE_LOOP('',(#216));
#105=EDGE_LOOP('',(#217));
#106=EDGE_LOOP('',(#218));
#107=EDGE_LOOP('',(#219,#220,#221,#222));
#108=EDGE_LOOP('',(#223,#224,#225,#226));
#109=EDGE_LOOP('',(#227,#228,#229,#230));
#110=EDGE_LOOP('',(#231,#232,#233,#234,#235,#236,#237,#238));
#111=EDGE_LOOP('',(#239,#240,#241,#242));
#112=EDGE_LOOP('',(#243,#244,#245,#246));
#113=EDGE_LOOP('',(#247,#248,#249,#250));
#114=EDGE_LOOP('',(#251,#252,#253,#254));
#115=EDGE_LOOP('',(#255,#256,#257,#258));
#116=EDGE_LOOP('',(#259,#260,#261,#262));
#117=EDGE_LOOP('',(#263,#264,#265,#266));
#118=EDGE_LOOP('',(#267,#268,#269,#270));
#119=EDGE_LOOP('',(#271,#272,#273,#274));
#120=EDGE_LOOP('',(#275));
#121=EDGE_LOOP('',(#276));
#122=EDGE_LOOP('',(#277));
#123=EDGE_LOOP('',(#278));
#124=CIRCLE('',#321,18.5);
#125=CIRCLE('',#323,18.5);
#126=CIRCLE('',#325,2.5);
#127=CIRCLE('',#326,2.5);
#128=CIRCLE('',#327,2.5);
#129=CIRCLE('',#328,2.5);
#130=CIRCLE('',#330,18.5);
#131=CIRCLE('',#332,18.5);
#132=CIRCLE('',#337,2.5);
#133=CIRCLE('',#339,2.5);
#134=CIRCLE('',#341,2.5);
#135=CIRCLE('',#343,2.5);
#136=VERTEX_POINT('',#435);
#137=VERTEX_POINT('',#438);
#138=VERTEX_POINT('',#439);
#139=VERTEX_POINT('',#441);
#140=VERTEX_POINT('',#443);
#141=VERTEX_POINT('',#447);
#142=VERTEX_POINT('',#449);
#143=VERTEX_POINT('',#451);
#144=VERTEX_POINT('',#453);
#145=VERTEX_POINT('',#455);
#146=VERTEX_POINT('',#457);
#147=VERTEX_POINT('',#460);
#148=VERTEX_POINT('',#462);
#149=VERTEX_POINT('',#464);
#150=VERTEX_POINT('',#466);
#151=VERTEX_POINT('',#469);
#152=VERTEX_POINT('',#472);
#153=VERTEX_POINT('',#473);
#154=VERTEX_POINT('',#482);
#155=VERTEX_POINT('',#484);
#156=VERTEX_POINT('',#489);
#157=VERTEX_POINT('',#493);
#158=VERTEX_POINT('',#497);
#159=VERTEX_POINT('',#501);
#160=VERTEX_POINT('',#505);
#161=VERTEX_POINT('',#509);
#162=EDGE_CURVE('',#136,#136,#124,.T.);
#163=EDGE_CURVE('',#137,#138,#125,.T.);
#164=EDGE_CURVE('',#137,#139,#29,.T.);
#165=EDGE_CURVE('',#140,#139,#30,.T.);
#166=EDGE_CURVE('',#140,#138,#31,.T.);
#167=EDGE_CURVE('',#141,#140,#32,.T.);
#168=EDGE_CURVE('',#142,#139,#33,.T.);
#169=EDGE_CURVE('',#143,#142,#34,.T.);
#170=EDGE_CURVE('',#144,#143,#35,.T.);
#171=EDGE_CURVE('',#145,#144,#36,.T.);
#172=EDGE_CURVE('',#146,#145,#37,.T.);
#173=EDGE_CURVE('',#146,#141,#38,.T.);
#174=EDGE_CURVE('',#147,#147,#126,.T.);
#175=EDGE_CURVE('',#148,#148,#127,.T.);
#176=EDGE_CURVE('',#149,#149,#128,.T.);
#177=EDGE_CURVE('',#150,#150,#129,.T.);
#178=EDGE_CURVE('',#151,#151,#130,.T.);
#179=EDGE_CURVE('',#152,#153,#131,.T.);
#180=EDGE_CURVE('',#141,#153,#39,.T.);
#181=EDGE_CURVE('',#146,#152,#40,.T.);
#182=EDGE_CURVE('',#136,#151,#41,.T.);
#183=EDGE_CURVE('',#153,#138,#42,.T.);
#184=EDGE_CURVE('',#137,#152,#43,.T.);
#185=EDGE_CURVE('',#145,#154,#44,.T.);
#186=EDGE_CURVE('',#155,#154,#45,.T.);
#187=EDGE_CURVE('',#142,#155,#46,.T.);
#188=EDGE_CURVE('',#156,#156,#132,.T.);
#189=EDGE_CURVE('',#156,#147,#47,.T.);
#190=EDGE_CURVE('',#157,#157,#133,.T.);
#191=EDGE_CURVE('',#157,#148,#48,.T.);
#192=EDGE_CURVE('',#158,#158,#134,.T.);
#193=EDGE_CURVE('',#158,#149,#49,.T.);
#194=EDGE_CURVE('',#159,#159,#135,.T.);
#195=EDGE_CURVE('',#159,#150,#50,.T.);
#196=EDGE_CURVE('',#160,#155,#51,.T.);
#197=EDGE_CURVE('',#143,#160,#52,.T.);
#198=EDGE_CURVE('',#161,#160,#53,.T.);
#199=EDGE_CURVE('',#144,#161,#54,.T.);
#200=EDGE_CURVE('',#154,#161,#55,.T.);
#201=ORIENTED_EDGE('',*,*,#162,.T.);
#202=ORIENTED_EDGE('',*,*,#163,.F.);
#203=ORIENTED_EDGE('',*,*,#164,.T.);
#204=ORIENTED_EDGE('',*,*,#165,.F.);
#205=ORIENTED_EDGE('',*,*,#166,.T.);
#206=ORIENTED_EDGE('',*,*,#167,.T.);
#207=ORIENTED_EDGE('',*,*,#165,.T.);
#208=ORIENTED_EDGE('',*,*,#168,.F.);
#209=ORIENTED_EDGE('',*,*,#169,.F.);
#210=ORIENTED_EDGE('',*,*,#170,.F.);
#211=ORIENTED_EDGE('',*,*,#171,.F.);
#212=ORIENTED_EDGE('',*,*,#172,.F.);
#213=ORIENTED_EDGE('',*,*,#173,.T.);
#214=ORIENTED_EDGE('',*,*,#174,.T.);
#215=ORIENTED_EDGE('',*,*,#175,.T.);
#216=ORIENTED_EDGE('',*,*,#176,.T.);
#217=ORIENTED_EDGE('',*,*,#177,.T.);
#218=ORIENTED_EDGE('',*,*,#178,.T.);
#219=ORIENTED_EDGE('',*,*,#179,.T.);
#220=ORIENTED_EDGE('',*,*,#180,.F.);
#221=ORIENTED_EDGE('',*,*,#173,.F.);
#222=ORIENTED_EDGE('',*,*,#181,.T.);
#223=ORIENTED_EDGE('',*,*,#162,.F.);
#224=ORIENTED_EDGE('',*,*,#182,.T.);
#225=ORIENTED_EDGE('',*,*,#178,.F.);
#226=ORIENTED_EDGE('',*,*,#182,.F.);
#227=ORIENTED_EDGE('',*,*,#183,.F.);
#228=ORIENTED_EDGE('',*,*,#179,.F.);
#229=ORIENTED_EDGE('',*,*,#184,.F.);
#230=ORIENTED_EDGE('',*,*,#163,.T.);
#231=ORIENTED_EDGE('',*,*,#184,.T.);
#232=ORIENTED_EDGE('',*,*,#181,.F.);
#233=ORIENTED_EDGE('',*,*,#172,.T.);
#234=ORIENTED_EDGE('',*,*,#185,.T.);
#235=ORIENTED_EDGE('',*,*,#186,.F.);
#236=ORIENTED_EDGE('',*,*,#187,.F.);
#237=ORIENTED_EDGE('',*,*,#168,.T.);
#238=ORIENTED_EDGE('',*,*,#164,.F.);
#239=ORIENTED_EDGE('',*,*,#183,.T.);
#240=ORIENTED_EDGE('',*,*,#166,.F.);
#241=ORIENTED_EDGE('',*,*,#167,.F.);
#242=ORIENTED_EDGE('',*,*,#180,.T.);
#243=ORIENTED_EDGE('',*,*,#188,.F.);
#244=ORIENTED_EDGE('',*,*,#189,.T.);
#245=ORIENTED_EDGE('',*,*,#174,.F.);
#246=ORIENTED_EDGE('',*,*,#189,.F.);
#247=ORIENTED_EDGE('',*,*,#190,.F.);
#248=ORIENTED_EDGE('',*,*,#191,.T.);
#249=ORIENTED_EDGE('',*,*,#175,.F.);
#250=ORIENTED_EDGE('',*,*,#191,.F.);
#251=ORIENTED_EDGE('',*,*,#192,.F.);
#252=ORIENTED_EDGE('',*,*,#193,.T.);
#253=ORIENTED_EDGE('',*,*,#176,.F.);
#254=ORIENTED_EDGE('',*,*,#193,.F.);
#255=ORIENTED_EDGE('',*,*,#194,.F.);
#256=ORIENTED_EDGE('',*,*,#195,.T.);
#257=ORIENTED_EDGE('',*,*,#177,.F.);
#258=ORIENTED_EDGE('',*,*,#195,.F.);
#259=ORIENTED_EDGE('',*,*,#169,.T.);
#260=ORIENTED_EDGE('',*,*,#187,.T.);
#261=ORIENTED_EDGE('',*,*,#196,.F.);
#262=ORIENTED_EDGE('',*,*,#197,.F.);
#263=ORIENTED_EDGE('',*,*,#170,.T.);
#264=ORIENTED_EDGE('',*,*,#197,.T.);
#265=ORIENTED_EDGE('',*,*,#198,.F.);
#266=ORIENTED_EDGE('',*,*,#199,.F.);
#267=ORIENTED_EDGE('',*,*,#171,.T.);
#268=ORIENTED_EDGE('',*,*,#199,.T.);
#269=ORIENTED_EDGE('',*,*,#200,.F.);
#270=ORIENTED_EDGE('',*,*,#185,.F.);
#271=ORIENTED_EDGE('',*,*,#186,.T.);
#272=ORIENTED_EDGE('',*,*,#200,.T.);
#273=ORIENTED_EDGE('',*,*,#198,.T.);
#274=ORIENTED_EDGE('',*,*,#196,.T.);
#275=ORIENTED_EDGE('',*,*,#188,.T.);
#276=ORIENTED_EDGE('',*,*,#190,.T.);
#277=ORIENTED_EDGE('',*,*,#192,.T.);
#278=ORIENTED_EDGE('',*,*,#194,.T.);
#279=PLANE('',#320);
#280=PLANE('',#322);
#281=PLANE('',#324);
#282=PLANE('',#329);
#283=PLANE('',#331);
#284=PLANE('',#334);
#285=PLANE('',#335);
#286=PLANE('',#344);
#287=PLANE('',#345);
#288=PLANE('',#346);
#289=PLANE('',#347);
#290=ADVANCED_FACE('',(#83),#279,.F.);
#291=ADVANCED_FACE('',(#84),#280,.T.);
#292=ADVANCED_FACE('',(#85,#20,#21,#22,#23),#281,.F.);
#293=ADVANCED_FACE('',(#86),#282,.T.);
#294=ADVANCED_FACE('',(#87),#283,.T.);
#295=ADVANCED_FACE('',(#88,#24),#15,.T.);
#296=ADVANCED_FACE('',(#89),#284,.T.);
#297=ADVANCED_FACE('',(#90),#285,.T.);
#298=ADVANCED_FACE('',(#91),#16,.F.);
#299=ADVANCED_FACE('',(#92),#17,.F.);
#300=ADVANCED_FACE('',(#93),#18,.F.);
#301=ADVANCED_FACE('',(#94),#19,.F.);
#302=ADVANCED_FACE('',(#95),#286,.T.);
#303=ADVANCED_FACE('',(#96),#287,.T.);
#304=ADVANCED_FACE('',(#97),#288,.T.);
#305=ADVANCED_FACE('',(#98,#25,#26,#27,#28),#289,.T.);
#306=CLOSED_SHELL('',(#290,#291,#292,#293,#294,#295,#296,#297,#298,#299,
#300,#301,#302,#303,#304,#305));
#307=DERIVED_UNIT_ELEMENT(#309,1.);
#308=DERIVED_UNIT_ELEMENT(#520,-3.);
#309=(
MASS_UNIT()
NAMED_UNIT(*)
SI_UNIT(.KILO.,.GRAM.)
);
#310=DERIVED_UNIT((#307,#308));
#311=MEASURE_REPRESENTATION_ITEM('density measure',
POSITIVE_RATIO_MEASURE(7850.),#310);
#312=PROPERTY_DEFINITION_REPRESENTATION(#317,#314);
#313=PROPERTY_DEFINITION_REPRESENTATION(#318,#315);
#314=REPRESENTATION('material name',(#316),#517);
#315=REPRESENTATION('density',(#311),#517);
#316=DESCRIPTIVE_REPRESENTATION_ITEM('Steel','Steel');
#317=PROPERTY_DEFINITION('material property','material name',#527);
#318=PROPERTY_DEFINITION('material property','density of part',#527);
#319=AXIS2_PLACEMENT_3D('',#433,#348,#349);
#320=AXIS2_PLACEMENT_3D('',#434,#350,#351);
#321=AXIS2_PLACEMENT_3D('',#436,#352,#353);
#322=AXIS2_PLACEMENT_3D('',#437,#354,#355);
#323=AXIS2_PLACEMENT_3D('',#440,#356,#357);
#324=AXIS2_PLACEMENT_3D('',#446,#361,#362);
#325=AXIS2_PLACEMENT_3D('',#461,#370,#371);
#326=AXIS2_PLACEMENT_3D('',#463,#372,#373);
#327=AXIS2_PLACEMENT_3D('',#465,#374,#375);
#328=AXIS2_PLACEMENT_3D('',#467,#376,#377);
#329=AXIS2_PLACEMENT_3D('',#468,#378,#379);
#330=AXIS2_PLACEMENT_3D('',#470,#380,#381);
#331=AXIS2_PLACEMENT_3D('',#471,#382,#383);
#332=AXIS2_PLACEMENT_3D('',#474,#384,#385);
#333=AXIS2_PLACEMENT_3D('',#477,#388,#389);
#334=AXIS2_PLACEMENT_3D('',#481,#393,#394);
#335=AXIS2_PLACEMENT_3D('',#487,#398,#399);
#336=AXIS2_PLACEMENT_3D('',#488,#400,#401);
#337=AXIS2_PLACEMENT_3D('',#490,#402,#403);
#338=AXIS2_PLACEMENT_3D('',#492,#405,#406);
#339=AXIS2_PLACEMENT_3D('',#494,#407,#408);
#340=AXIS2_PLACEMENT_3D('',#496,#410,#411);
#341=AXIS2_PLACEMENT_3D('',#498,#412,#413);
#342=AXIS2_PLACEMENT_3D('',#500,#415,#416);
#343=AXIS2_PLACEMENT_3D('',#502,#417,#418);
#344=AXIS2_PLACEMENT_3D('',#504,#420,#421);
#345=AXIS2_PLACEMENT_3D('',#508,#424,#425);
#346=AXIS2_PLACEMENT_3D('',#512,#428,#429);
#347=AXIS2_PLACEMENT_3D('',#514,#431,#432);
#348=DIRECTION('axis',(0.,0.,1.));
#349=DIRECTION('refdir',(1.,0.,0.));
#350=DIRECTION('center_axis',(0.,-1.,0.));
#351=DIRECTION('ref_axis',(1.,0.,0.));
#352=DIRECTION('center_axis',(0.,1.,0.));
#353=DIRECTION('ref_axis',(1.,0.,0.));
#354=DIRECTION('center_axis',(0.,1.,0.));
#355=DIRECTION('ref_axis',(1.,0.,0.));
#356=DIRECTION('center_axis',(0.,1.,0.));
#357=DIRECTION('ref_axis',(1.,0.,0.));
#358=DIRECTION('',(0.,0.,1.));
#359=DIRECTION('',(-1.,0.,0.));
#360=DIRECTION('',(0.,0.,-1.));
#361=DIRECTION('center_axis',(0.,0.,1.));
#362=DIRECTION('ref_axis',(1.,0.,0.));
#363=DIRECTION('',(0.,1.,0.));
#364=DIRECTION('',(0.,-1.,0.));
#365=DIRECTION('',(-1.,0.,0.));
#366=DIRECTION('',(0.,1.,0.));
#367=DIRECTION('',(1.,0.,0.));
#368=DIRECTION('',(0.,-1.,0.));
#369=DIRECTION('',(1.,0.,0.));
#370=DIRECTION('center_axis',(0.,0.,1.));
#371=DIRECTION('ref_axis',(-1.,0.,0.));
#372=DIRECTION('center_axis',(0.,0.,1.));
#373=DIRECTION('ref_axis',(1.,0.,0.));
#374=DIRECTION('center_axis',(0.,0.,1.));
#375=DIRECTION('ref_axis',(-1.,0.,0.));
#376=DIRECTION('center_axis',(0.,0.,1.));
#377=DIRECTION('ref_axis',(1.,0.,0.));
#378=DIRECTION('center_axis',(0.,-1.,0.));
#379=DIRECTION('ref_axis',(1.,0.,0.));
#380=DIRECTION('center_axis',(0.,-1.,0.));
#381=DIRECTION('ref_axis',(1.,0.,0.));
#382=DIRECTION('center_axis',(0.,-1.,0.));
#383=DIRECTION('ref_axis',(-1.,0.,0.));
#384=DIRECTION('center_axis',(0.,1.,0.));
#385=DIRECTION('ref_axis',(1.,0.,0.));
#386=DIRECTION('',(0.,0.,-1.));
#387=DIRECTION('',(0.,0.,-1.));
#388=DIRECTION('center_axis',(0.,1.,0.));
#389=DIRECTION('ref_axis',(1.,0.,0.));
#390=DIRECTION('',(0.,-1.,0.));
#391=DIRECTION('',(0.,1.,0.));
#392=DIRECTION('',(0.,-1.,0.));
#393=DIRECTION('center_axis',(-1.,0.,0.));
#394=DIRECTION('ref_axis',(0.,-1.,0.));
#395=DIRECTION('',(0.,0.,1.));
#396=DIRECTION('',(0.,-1.,0.));
#397=DIRECTION('',(0.,0.,1.));
#398=DIRECTION('center_axis',(1.,0.,0.));
#399=DIRECTION('ref_axis',(0.,-1.,0.));
#400=DIRECTION('center_axis',(0.,0.,-1.));
#401=DIRECTION('ref_axis',(-1.,0.,0.));
#402=DIRECTION('center_axis',(0.,0.,-1.));
#403=DIRECTION('ref_axis',(-1.,0.,0.));
#404=DIRECTION('',(0.,0.,-1.));
#405=DIRECTION('center_axis',(0.,0.,1.));
#406=DIRECTION('ref_axis',(1.,0.,0.));
#407=DIRECTION('center_axis',(0.,0.,-1.));
#408=DIRECTION('ref_axis',(1.,0.,0.));
#409=DIRECTION('',(0.,0.,-1.));
#410=DIRECTION('center_axis',(0.,0.,1.));
#411=DIRECTION('ref_axis',(-1.,0.,0.));
#412=DIRECTION('center_axis',(0.,0.,-1.));
#413=DIRECTION('ref_axis',(-1.,0.,0.));
#414=DIRECTION('',(0.,0.,-1.));
#415=DIRECTION('center_axis',(0.,0.,-1.));
#416=DIRECTION('ref_axis',(1.,0.,0.));
#417=DIRECTION('center_axis',(0.,0.,-1.));
#418=DIRECTION('ref_axis',(1.,0.,0.));
#419=DIRECTION('',(0.,0.,-1.));
#420=DIRECTION('center_axis',(0.,1.,0.));
#421=DIRECTION('ref_axis',(-1.,0.,0.));
#422=DIRECTION('',(-1.,0.,0.));
#423=DIRECTION('',(0.,0.,1.));
#424=DIRECTION('center_axis',(1.,0.,0.));
#425=DIRECTION('ref_axis',(0.,1.,0.));
#426=DIRECTION('',(0.,1.,0.));
#427=DIRECTION('',(0.,0.,1.));
#428=DIRECTION('center_axis',(0.,-1.,0.));
#429=DIRECTION('ref_axis',(1.,0.,0.));
#430=DIRECTION('',(1.,0.,0.));
#431=DIRECTION('center_axis',(0.,0.,1.));
#432=DIRECTION('ref_axis',(1.,0.,0.));
#433=CARTESIAN_POINT('',(0.,0.,0.));
#434=CARTESIAN_POINT('Origin',(5.00000007450581,36.,-30.0000004470348));
#435=CARTESIAN_POINT('',(-13.4999999254942,36.,-30.0000004470348));
#436=CARTESIAN_POINT('Origin',(5.00000007450581,36.,-30.0000004470348));
#437=CARTESIAN_POINT('Origin',(0.,30.,0.));
#438=CARTESIAN_POINT('',(0.,30.,-12.188487337393));
#439=CARTESIAN_POINT('',(10.,30.,-12.1884872955629));
#440=CARTESIAN_POINT('Origin',(5.00000007450581,30.,-30.0000004470348));
#441=CARTESIAN_POINT('',(0.,30.,0.));
#442=CARTESIAN_POINT('',(0.,30.,0.));
#443=CARTESIAN_POINT('',(10.,30.,0.));
#444=CARTESIAN_POINT('',(9.25,30.,0.));
#445=CARTESIAN_POINT('',(10.,30.,0.));
#446=CARTESIAN_POINT('Origin',(18.5,22.5,0.));
#447=CARTESIAN_POINT('',(10.,15.,0.));
#448=CARTESIAN_POINT('',(10.,23.75,0.));
#449=CARTESIAN_POINT('',(0.,45.,0.));
#450=CARTESIAN_POINT('',(0.,45.,0.));
#451=CARTESIAN_POINT('',(37.,45.,0.));
#452=CARTESIAN_POINT('',(37.,45.,0.));
#453=CARTESIAN_POINT('',(37.,0.,0.));
#454=CARTESIAN_POINT('',(37.,0.,0.));
#455=CARTESIAN_POINT('',(0.,0.,0.));
#456=CARTESIAN_POINT('',(0.,0.,0.));
#457=CARTESIAN_POINT('',(0.,15.,0.));
#458=CARTESIAN_POINT('',(0.,45.,0.));
#459=CARTESIAN_POINT('',(14.25,15.,0.));
#460=CARTESIAN_POINT('',(34.4999999403954,4.99999938160181,0.));
#461=CARTESIAN_POINT('Origin',(31.9999999403954,4.99999938160181,0.));
#462=CARTESIAN_POINT('',(2.50000005960464,4.99999938160181,0.));
#463=CARTESIAN_POINT('Origin',(5.00000005960464,4.99999938160181,0.));
#464=CARTESIAN_POINT('',(34.4999999403954,40.0000006183982,0.));
#465=CARTESIAN_POINT('Origin',(31.9999999403954,40.0000006183982,0.));
#466=CARTESIAN_POINT('',(2.50000005960464,40.0000006183982,0.));
#467=CARTESIAN_POINT('Origin',(5.00000005960464,40.0000006183982,0.));
#468=CARTESIAN_POINT('Origin',(5.00000007450581,9.,-30.0000004470348));
#469=CARTESIAN_POINT('',(-13.4999999254942,9.,-30.0000004470348));
#470=CARTESIAN_POINT('Origin',(5.00000007450581,9.,-30.0000004470348));
#471=CARTESIAN_POINT('Origin',(10.,15.,0.));
#472=CARTESIAN_POINT('',(0.,15.,-12.188487337393));
#473=CARTESIAN_POINT('',(10.,15.,-12.1884872955629));
#474=CARTESIAN_POINT('Origin',(5.00000007450581,15.,-30.0000004470348));
#475=CARTESIAN_POINT('',(10.,15.,0.));
#476=CARTESIAN_POINT('',(0.,15.,0.));
#477=CARTESIAN_POINT('Origin',(5.00000007450581,15.,-30.0000004470348));
#478=CARTESIAN_POINT('',(-13.4999999254942,15.,-30.0000004470348));
#479=CARTESIAN_POINT('',(10.,15.,-12.1884872955629));
#480=CARTESIAN_POINT('',(0.,15.,-12.188487337393));
#481=CARTESIAN_POINT('Origin',(0.,45.,0.));
#482=CARTESIAN_POINT('',(0.,0.,2.));
#483=CARTESIAN_POINT('',(0.,0.,0.));
#484=CARTESIAN_POINT('',(0.,45.,2.));
#485=CARTESIAN_POINT('',(0.,45.,2.));
#486=CARTESIAN_POINT('',(0.,45.,0.));
#487=CARTESIAN_POINT('Origin',(10.,25.,0.));
#488=CARTESIAN_POINT('Origin',(31.9999999403954,4.99999938160181,-5.5));
#489=CARTESIAN_POINT('',(34.4999999403954,4.99999938160181,2.));
#490=CARTESIAN_POINT('Origin',(31.9999999403954,4.99999938160181,2.));
#491=CARTESIAN_POINT('',(34.4999999403954,4.99999938160181,-5.5));
#492=CARTESIAN_POINT('Origin',(5.00000005960464,4.99999938160181,-5.5));
#493=CARTESIAN_POINT('',(2.50000005960464,4.99999938160181,2.));
#494=CARTESIAN_POINT('Origin',(5.00000005960464,4.99999938160181,2.));
#495=CARTESIAN_POINT('',(2.50000005960464,4.99999938160181,-5.5));
#496=CARTESIAN_POINT('Origin',(31.9999999403954,40.0000006183982,-5.5));
#497=CARTESIAN_POINT('',(34.4999999403954,40.0000006183982,2.));
#498=CARTESIAN_POINT('Origin',(31.9999999403954,40.0000006183982,2.));
#499=CARTESIAN_POINT('',(34.4999999403954,40.0000006183982,-5.5));
#500=CARTESIAN_POINT('Origin',(5.00000005960464,40.0000006183982,-5.5));
#501=CARTESIAN_POINT('',(2.50000005960464,40.0000006183982,2.));
#502=CARTESIAN_POINT('Origin',(5.00000005960464,40.0000006183982,2.));
#503=CARTESIAN_POINT('',(2.50000005960464,40.0000006183982,-5.5));
#504=CARTESIAN_POINT('Origin',(37.,45.,0.));
#505=CARTESIAN_POINT('',(37.,45.,2.));
#506=CARTESIAN_POINT('',(37.,45.,2.));
#507=CARTESIAN_POINT('',(37.,45.,0.));
#508=CARTESIAN_POINT('Origin',(37.,0.,0.));
#509=CARTESIAN_POINT('',(37.,0.,2.));
#510=CARTESIAN_POINT('',(37.,0.,2.));
#511=CARTESIAN_POINT('',(37.,0.,0.));
#512=CARTESIAN_POINT('Origin',(0.,0.,0.));
#513=CARTESIAN_POINT('',(0.,0.,2.));
#514=CARTESIAN_POINT('Origin',(18.5,22.5,2.));
#515=UNCERTAINTY_MEASURE_WITH_UNIT(LENGTH_MEASURE(0.01),#519,
'DISTANCE_ACCURACY_VALUE',
'Maximum model space distance between geometric entities at asserted c
onnectivities');
#516=UNCERTAINTY_MEASURE_WITH_UNIT(LENGTH_MEASURE(0.01),#519,
'DISTANCE_ACCURACY_VALUE',
'Maximum model space distance between geometric entities at asserted c
onnectivities');
#517=(
GEOMETRIC_REPRESENTATION_CONTEXT(3)
GLOBAL_UNCERTAINTY_ASSIGNED_CONTEXT((#515))
GLOBAL_UNIT_ASSIGNED_CONTEXT((#519,#521,#522))
REPRESENTATION_CONTEXT('','3D')
);
#518=(
GEOMETRIC_REPRESENTATION_CONTEXT(3)
GLOBAL_UNCERTAINTY_ASSIGNED_CONTEXT((#516))
GLOBAL_UNIT_ASSIGNED_CONTEXT((#519,#521,#522))
REPRESENTATION_CONTEXT('','3D')
);
#519=(
LENGTH_UNIT()
NAMED_UNIT(*)
SI_UNIT(.MILLI.,.METRE.)
);
#520=(
LENGTH_UNIT()
NAMED_UNIT(*)
SI_UNIT($,.METRE.)
);
#521=(
NAMED_UNIT(*)
PLANE_ANGLE_UNIT()
SI_UNIT($,.RADIAN.)
);
#522=(
NAMED_UNIT(*)
SI_UNIT($,.STERADIAN.)
SOLID_ANGLE_UNIT()
);
#523=SHAPE_DEFINITION_REPRESENTATION(#524,#525);
#524=PRODUCT_DEFINITION_SHAPE('',$,#527);
#525=SHAPE_REPRESENTATION('',(#319),#517);
#526=PRODUCT_DEFINITION_CONTEXT('part definition',#531,'design');
#527=PRODUCT_DEFINITION('trolley_wheel','trolley_wheel v2',#528,#526);
#528=PRODUCT_DEFINITION_FORMATION('',$,#533);
#529=PRODUCT_RELATED_PRODUCT_CATEGORY('trolley_wheel v2',
'trolley_wheel v2',(#533));
#530=APPLICATION_PROTOCOL_DEFINITION('international standard',
'automotive_design',2009,#531);
#531=APPLICATION_CONTEXT(
'Core Data for Automotive Mechanical Design Process');
#532=PRODUCT_CONTEXT('part definition',#531,'mechanical');
#533=PRODUCT('trolley_wheel','trolley_wheel v2',$,(#532));
#534=PRESENTATION_STYLE_ASSIGNMENT((#535));
#535=SURFACE_STYLE_USAGE(.BOTH.,#536);
#536=SURFACE_SIDE_STYLE('',(#537));
#537=SURFACE_STYLE_FILL_AREA(#538);
#538=FILL_AREA_STYLE('Steel - Satin',(#539));
#539=FILL_AREA_STYLE_COLOUR('Steel - Satin',#540);
#540=COLOUR_RGB('Steel - Satin',0.627450980392157,0.627450980392157,0.627450980392157);
ENDSEC;
END-ISO-10303-21;
